G04 #@! TF.GenerationSoftware,KiCad,Pcbnew,9.0.2*
G04 #@! TF.CreationDate,2025-06-26T16:26:48+10:00*
G04 #@! TF.ProjectId,PiCam HAT,50694361-6d20-4484-9154-2e6b69636164,rev?*
G04 #@! TF.SameCoordinates,Original*
G04 #@! TF.FileFunction,Copper,L2,Bot*
G04 #@! TF.FilePolarity,Positive*
%FSLAX46Y46*%
G04 Gerber Fmt 4.6, Leading zero omitted, Abs format (unit mm)*
G04 Created by KiCad (PCBNEW 9.0.2) date 2025-06-26 16:26:48*
%MOMM*%
%LPD*%
G01*
G04 APERTURE LIST*
G04 #@! TA.AperFunction,ComponentPad*
%ADD10O,1.700000X1.700000*%
G04 #@! TD*
G04 #@! TA.AperFunction,ComponentPad*
%ADD11R,1.700000X1.700000*%
G04 #@! TD*
G04 #@! TA.AperFunction,ComponentPad*
%ADD12C,2.000000*%
G04 #@! TD*
G04 APERTURE END LIST*
D10*
X156630000Y-72230000D03*
X156630000Y-74770000D03*
X154090000Y-72230000D03*
X154090000Y-74770000D03*
X151550000Y-72230000D03*
X151550000Y-74770000D03*
X149010000Y-72230000D03*
X149010000Y-74770000D03*
X146470000Y-72230000D03*
X146470000Y-74770000D03*
X143930000Y-72230000D03*
X143930000Y-74770000D03*
X141390000Y-72230000D03*
X141390000Y-74770000D03*
X138850000Y-72230000D03*
X138850000Y-74770000D03*
X136310000Y-72230000D03*
X136310000Y-74770000D03*
X133770000Y-72230000D03*
X133770000Y-74770000D03*
X131230000Y-72230000D03*
X131230000Y-74770000D03*
X128690000Y-72230000D03*
X128690000Y-74770000D03*
X126150000Y-72230000D03*
X126150000Y-74770000D03*
X123610000Y-72230000D03*
X123610000Y-74770000D03*
X121070000Y-72230000D03*
X121070000Y-74770000D03*
X118530000Y-72230000D03*
X118530000Y-74770000D03*
X115990000Y-72230000D03*
X115990000Y-74770000D03*
X113450000Y-72230000D03*
X113450000Y-74770000D03*
X110910000Y-72230000D03*
X110910000Y-74770000D03*
X108370000Y-72230000D03*
D11*
X108370000Y-74770000D03*
D12*
X106500000Y-81700000D03*
X106500000Y-89300000D03*
M02*
