G04 #@! TF.GenerationSoftware,KiCad,Pcbnew,9.0.2*
G04 #@! TF.CreationDate,2025-06-26T16:26:48+10:00*
G04 #@! TF.ProjectId,PiCam HAT,50694361-6d20-4484-9154-2e6b69636164,rev?*
G04 #@! TF.SameCoordinates,Original*
G04 #@! TF.FileFunction,Legend,Top*
G04 #@! TF.FilePolarity,Positive*
%FSLAX46Y46*%
G04 Gerber Fmt 4.6, Leading zero omitted, Abs format (unit mm)*
G04 Created by KiCad (PCBNEW 9.0.2) date 2025-06-26 16:26:48*
%MOMM*%
%LPD*%
G01*
G04 APERTURE LIST*
%ADD10C,0.120000*%
%ADD11C,0.100000*%
%ADD12C,0.160000*%
%ADD13C,0.150000*%
%ADD14C,0.010000*%
%ADD15C,0.000000*%
%ADD16C,0.200000*%
%ADD17C,0.127000*%
%ADD18C,0.400000*%
G04 APERTURE END LIST*
D10*
X156500000Y-77000000D02*
X164500000Y-77000000D01*
X164500000Y-92517822D01*
X156500000Y-92517822D01*
X156500000Y-77000000D01*
X112500000Y-85500000D02*
G75*
G02*
X100500000Y-85500000I-6000000J0D01*
G01*
X100500000Y-85500000D02*
G75*
G02*
X112500000Y-85500000I6000000J0D01*
G01*
D11*
X163128637Y-91815163D02*
X162628637Y-91815163D01*
X162628637Y-91815163D02*
X162628637Y-91696115D01*
X162628637Y-91696115D02*
X162652447Y-91624687D01*
X162652447Y-91624687D02*
X162700066Y-91577068D01*
X162700066Y-91577068D02*
X162747685Y-91553258D01*
X162747685Y-91553258D02*
X162842923Y-91529449D01*
X162842923Y-91529449D02*
X162914351Y-91529449D01*
X162914351Y-91529449D02*
X163009589Y-91553258D01*
X163009589Y-91553258D02*
X163057208Y-91577068D01*
X163057208Y-91577068D02*
X163104828Y-91624687D01*
X163104828Y-91624687D02*
X163128637Y-91696115D01*
X163128637Y-91696115D02*
X163128637Y-91815163D01*
X162628637Y-91219925D02*
X162628637Y-91124687D01*
X162628637Y-91124687D02*
X162652447Y-91077068D01*
X162652447Y-91077068D02*
X162700066Y-91029449D01*
X162700066Y-91029449D02*
X162795304Y-91005639D01*
X162795304Y-91005639D02*
X162961970Y-91005639D01*
X162961970Y-91005639D02*
X163057208Y-91029449D01*
X163057208Y-91029449D02*
X163104828Y-91077068D01*
X163104828Y-91077068D02*
X163128637Y-91124687D01*
X163128637Y-91124687D02*
X163128637Y-91219925D01*
X163128637Y-91219925D02*
X163104828Y-91267544D01*
X163104828Y-91267544D02*
X163057208Y-91315163D01*
X163057208Y-91315163D02*
X162961970Y-91338972D01*
X162961970Y-91338972D02*
X162795304Y-91338972D01*
X162795304Y-91338972D02*
X162700066Y-91315163D01*
X162700066Y-91315163D02*
X162652447Y-91267544D01*
X162652447Y-91267544D02*
X162628637Y-91219925D01*
X163128637Y-90410401D02*
X162628637Y-90410401D01*
X162628637Y-90410401D02*
X163128637Y-90124687D01*
X163128637Y-90124687D02*
X162628637Y-90124687D01*
X162628637Y-89791353D02*
X162628637Y-89696115D01*
X162628637Y-89696115D02*
X162652447Y-89648496D01*
X162652447Y-89648496D02*
X162700066Y-89600877D01*
X162700066Y-89600877D02*
X162795304Y-89577067D01*
X162795304Y-89577067D02*
X162961970Y-89577067D01*
X162961970Y-89577067D02*
X163057208Y-89600877D01*
X163057208Y-89600877D02*
X163104828Y-89648496D01*
X163104828Y-89648496D02*
X163128637Y-89696115D01*
X163128637Y-89696115D02*
X163128637Y-89791353D01*
X163128637Y-89791353D02*
X163104828Y-89838972D01*
X163104828Y-89838972D02*
X163057208Y-89886591D01*
X163057208Y-89886591D02*
X162961970Y-89910400D01*
X162961970Y-89910400D02*
X162795304Y-89910400D01*
X162795304Y-89910400D02*
X162700066Y-89886591D01*
X162700066Y-89886591D02*
X162652447Y-89838972D01*
X162652447Y-89838972D02*
X162628637Y-89791353D01*
X162628637Y-89434209D02*
X162628637Y-89148495D01*
X163128637Y-89291352D02*
X162628637Y-89291352D01*
X163128637Y-88600877D02*
X162628637Y-88600877D01*
X162628637Y-88600877D02*
X162628637Y-88481829D01*
X162628637Y-88481829D02*
X162652447Y-88410401D01*
X162652447Y-88410401D02*
X162700066Y-88362782D01*
X162700066Y-88362782D02*
X162747685Y-88338972D01*
X162747685Y-88338972D02*
X162842923Y-88315163D01*
X162842923Y-88315163D02*
X162914351Y-88315163D01*
X162914351Y-88315163D02*
X163009589Y-88338972D01*
X163009589Y-88338972D02*
X163057208Y-88362782D01*
X163057208Y-88362782D02*
X163104828Y-88410401D01*
X163104828Y-88410401D02*
X163128637Y-88481829D01*
X163128637Y-88481829D02*
X163128637Y-88600877D01*
X163128637Y-88100877D02*
X162628637Y-88100877D01*
X163104828Y-87886591D02*
X163128637Y-87815163D01*
X163128637Y-87815163D02*
X163128637Y-87696115D01*
X163128637Y-87696115D02*
X163104828Y-87648496D01*
X163104828Y-87648496D02*
X163081018Y-87624687D01*
X163081018Y-87624687D02*
X163033399Y-87600877D01*
X163033399Y-87600877D02*
X162985780Y-87600877D01*
X162985780Y-87600877D02*
X162938161Y-87624687D01*
X162938161Y-87624687D02*
X162914351Y-87648496D01*
X162914351Y-87648496D02*
X162890542Y-87696115D01*
X162890542Y-87696115D02*
X162866732Y-87791353D01*
X162866732Y-87791353D02*
X162842923Y-87838972D01*
X162842923Y-87838972D02*
X162819113Y-87862782D01*
X162819113Y-87862782D02*
X162771494Y-87886591D01*
X162771494Y-87886591D02*
X162723875Y-87886591D01*
X162723875Y-87886591D02*
X162676256Y-87862782D01*
X162676256Y-87862782D02*
X162652447Y-87838972D01*
X162652447Y-87838972D02*
X162628637Y-87791353D01*
X162628637Y-87791353D02*
X162628637Y-87672306D01*
X162628637Y-87672306D02*
X162652447Y-87600877D01*
X163128637Y-87386592D02*
X162628637Y-87386592D01*
X162628637Y-87386592D02*
X162628637Y-87196116D01*
X162628637Y-87196116D02*
X162652447Y-87148497D01*
X162652447Y-87148497D02*
X162676256Y-87124687D01*
X162676256Y-87124687D02*
X162723875Y-87100878D01*
X162723875Y-87100878D02*
X162795304Y-87100878D01*
X162795304Y-87100878D02*
X162842923Y-87124687D01*
X162842923Y-87124687D02*
X162866732Y-87148497D01*
X162866732Y-87148497D02*
X162890542Y-87196116D01*
X162890542Y-87196116D02*
X162890542Y-87386592D01*
X162628637Y-86791354D02*
X162628637Y-86696116D01*
X162628637Y-86696116D02*
X162652447Y-86648497D01*
X162652447Y-86648497D02*
X162700066Y-86600878D01*
X162700066Y-86600878D02*
X162795304Y-86577068D01*
X162795304Y-86577068D02*
X162961970Y-86577068D01*
X162961970Y-86577068D02*
X163057208Y-86600878D01*
X163057208Y-86600878D02*
X163104828Y-86648497D01*
X163104828Y-86648497D02*
X163128637Y-86696116D01*
X163128637Y-86696116D02*
X163128637Y-86791354D01*
X163128637Y-86791354D02*
X163104828Y-86838973D01*
X163104828Y-86838973D02*
X163057208Y-86886592D01*
X163057208Y-86886592D02*
X162961970Y-86910401D01*
X162961970Y-86910401D02*
X162795304Y-86910401D01*
X162795304Y-86910401D02*
X162700066Y-86886592D01*
X162700066Y-86886592D02*
X162652447Y-86838973D01*
X162652447Y-86838973D02*
X162628637Y-86791354D01*
X163104828Y-86386591D02*
X163128637Y-86315163D01*
X163128637Y-86315163D02*
X163128637Y-86196115D01*
X163128637Y-86196115D02*
X163104828Y-86148496D01*
X163104828Y-86148496D02*
X163081018Y-86124687D01*
X163081018Y-86124687D02*
X163033399Y-86100877D01*
X163033399Y-86100877D02*
X162985780Y-86100877D01*
X162985780Y-86100877D02*
X162938161Y-86124687D01*
X162938161Y-86124687D02*
X162914351Y-86148496D01*
X162914351Y-86148496D02*
X162890542Y-86196115D01*
X162890542Y-86196115D02*
X162866732Y-86291353D01*
X162866732Y-86291353D02*
X162842923Y-86338972D01*
X162842923Y-86338972D02*
X162819113Y-86362782D01*
X162819113Y-86362782D02*
X162771494Y-86386591D01*
X162771494Y-86386591D02*
X162723875Y-86386591D01*
X162723875Y-86386591D02*
X162676256Y-86362782D01*
X162676256Y-86362782D02*
X162652447Y-86338972D01*
X162652447Y-86338972D02*
X162628637Y-86291353D01*
X162628637Y-86291353D02*
X162628637Y-86172306D01*
X162628637Y-86172306D02*
X162652447Y-86100877D01*
X162866732Y-85886592D02*
X162866732Y-85719925D01*
X163128637Y-85648497D02*
X163128637Y-85886592D01*
X163128637Y-85886592D02*
X162628637Y-85886592D01*
X162628637Y-85886592D02*
X162628637Y-85648497D01*
X162628637Y-84958021D02*
X162628637Y-84862783D01*
X162628637Y-84862783D02*
X162652447Y-84815164D01*
X162652447Y-84815164D02*
X162700066Y-84767545D01*
X162700066Y-84767545D02*
X162795304Y-84743735D01*
X162795304Y-84743735D02*
X162961970Y-84743735D01*
X162961970Y-84743735D02*
X163057208Y-84767545D01*
X163057208Y-84767545D02*
X163104828Y-84815164D01*
X163104828Y-84815164D02*
X163128637Y-84862783D01*
X163128637Y-84862783D02*
X163128637Y-84958021D01*
X163128637Y-84958021D02*
X163104828Y-85005640D01*
X163104828Y-85005640D02*
X163057208Y-85053259D01*
X163057208Y-85053259D02*
X162961970Y-85077068D01*
X162961970Y-85077068D02*
X162795304Y-85077068D01*
X162795304Y-85077068D02*
X162700066Y-85053259D01*
X162700066Y-85053259D02*
X162652447Y-85005640D01*
X162652447Y-85005640D02*
X162628637Y-84958021D01*
X162866732Y-84362782D02*
X162866732Y-84529449D01*
X163128637Y-84529449D02*
X162628637Y-84529449D01*
X162628637Y-84529449D02*
X162628637Y-84291354D01*
X163933609Y-91815163D02*
X163433609Y-91815163D01*
X163933609Y-91577068D02*
X163433609Y-91577068D01*
X163433609Y-91577068D02*
X163933609Y-91291354D01*
X163933609Y-91291354D02*
X163433609Y-91291354D01*
X163933609Y-90672306D02*
X163433609Y-90672306D01*
X163671704Y-90672306D02*
X163671704Y-90386592D01*
X163933609Y-90386592D02*
X163433609Y-90386592D01*
X163433609Y-90053258D02*
X163433609Y-89958020D01*
X163433609Y-89958020D02*
X163457419Y-89910401D01*
X163457419Y-89910401D02*
X163505038Y-89862782D01*
X163505038Y-89862782D02*
X163600276Y-89838972D01*
X163600276Y-89838972D02*
X163766942Y-89838972D01*
X163766942Y-89838972D02*
X163862180Y-89862782D01*
X163862180Y-89862782D02*
X163909800Y-89910401D01*
X163909800Y-89910401D02*
X163933609Y-89958020D01*
X163933609Y-89958020D02*
X163933609Y-90053258D01*
X163933609Y-90053258D02*
X163909800Y-90100877D01*
X163909800Y-90100877D02*
X163862180Y-90148496D01*
X163862180Y-90148496D02*
X163766942Y-90172305D01*
X163766942Y-90172305D02*
X163600276Y-90172305D01*
X163600276Y-90172305D02*
X163505038Y-90148496D01*
X163505038Y-90148496D02*
X163457419Y-90100877D01*
X163457419Y-90100877D02*
X163433609Y-90053258D01*
X163433609Y-89624686D02*
X163838371Y-89624686D01*
X163838371Y-89624686D02*
X163885990Y-89600876D01*
X163885990Y-89600876D02*
X163909800Y-89577067D01*
X163909800Y-89577067D02*
X163933609Y-89529448D01*
X163933609Y-89529448D02*
X163933609Y-89434210D01*
X163933609Y-89434210D02*
X163909800Y-89386591D01*
X163909800Y-89386591D02*
X163885990Y-89362781D01*
X163885990Y-89362781D02*
X163838371Y-89338972D01*
X163838371Y-89338972D02*
X163433609Y-89338972D01*
X163909800Y-89124685D02*
X163933609Y-89053257D01*
X163933609Y-89053257D02*
X163933609Y-88934209D01*
X163933609Y-88934209D02*
X163909800Y-88886590D01*
X163909800Y-88886590D02*
X163885990Y-88862781D01*
X163885990Y-88862781D02*
X163838371Y-88838971D01*
X163838371Y-88838971D02*
X163790752Y-88838971D01*
X163790752Y-88838971D02*
X163743133Y-88862781D01*
X163743133Y-88862781D02*
X163719323Y-88886590D01*
X163719323Y-88886590D02*
X163695514Y-88934209D01*
X163695514Y-88934209D02*
X163671704Y-89029447D01*
X163671704Y-89029447D02*
X163647895Y-89077066D01*
X163647895Y-89077066D02*
X163624085Y-89100876D01*
X163624085Y-89100876D02*
X163576466Y-89124685D01*
X163576466Y-89124685D02*
X163528847Y-89124685D01*
X163528847Y-89124685D02*
X163481228Y-89100876D01*
X163481228Y-89100876D02*
X163457419Y-89077066D01*
X163457419Y-89077066D02*
X163433609Y-89029447D01*
X163433609Y-89029447D02*
X163433609Y-88910400D01*
X163433609Y-88910400D02*
X163457419Y-88838971D01*
X163671704Y-88624686D02*
X163671704Y-88458019D01*
X163933609Y-88386591D02*
X163933609Y-88624686D01*
X163933609Y-88624686D02*
X163433609Y-88624686D01*
X163433609Y-88624686D02*
X163433609Y-88386591D01*
X163933609Y-88172305D02*
X163433609Y-88172305D01*
X163671704Y-88172305D02*
X163671704Y-87886591D01*
X163933609Y-87886591D02*
X163433609Y-87886591D01*
X163433609Y-87553257D02*
X163433609Y-87458019D01*
X163433609Y-87458019D02*
X163457419Y-87410400D01*
X163457419Y-87410400D02*
X163505038Y-87362781D01*
X163505038Y-87362781D02*
X163600276Y-87338971D01*
X163600276Y-87338971D02*
X163766942Y-87338971D01*
X163766942Y-87338971D02*
X163862180Y-87362781D01*
X163862180Y-87362781D02*
X163909800Y-87410400D01*
X163909800Y-87410400D02*
X163933609Y-87458019D01*
X163933609Y-87458019D02*
X163933609Y-87553257D01*
X163933609Y-87553257D02*
X163909800Y-87600876D01*
X163909800Y-87600876D02*
X163862180Y-87648495D01*
X163862180Y-87648495D02*
X163766942Y-87672304D01*
X163766942Y-87672304D02*
X163600276Y-87672304D01*
X163600276Y-87672304D02*
X163505038Y-87648495D01*
X163505038Y-87648495D02*
X163457419Y-87600876D01*
X163457419Y-87600876D02*
X163433609Y-87553257D01*
X163933609Y-86886590D02*
X163933609Y-87124685D01*
X163933609Y-87124685D02*
X163433609Y-87124685D01*
X163933609Y-86719923D02*
X163433609Y-86719923D01*
X163433609Y-86719923D02*
X163433609Y-86600875D01*
X163433609Y-86600875D02*
X163457419Y-86529447D01*
X163457419Y-86529447D02*
X163505038Y-86481828D01*
X163505038Y-86481828D02*
X163552657Y-86458018D01*
X163552657Y-86458018D02*
X163647895Y-86434209D01*
X163647895Y-86434209D02*
X163719323Y-86434209D01*
X163719323Y-86434209D02*
X163814561Y-86458018D01*
X163814561Y-86458018D02*
X163862180Y-86481828D01*
X163862180Y-86481828D02*
X163909800Y-86529447D01*
X163909800Y-86529447D02*
X163933609Y-86600875D01*
X163933609Y-86600875D02*
X163933609Y-86719923D01*
X163671704Y-85672304D02*
X163695514Y-85600876D01*
X163695514Y-85600876D02*
X163719323Y-85577066D01*
X163719323Y-85577066D02*
X163766942Y-85553257D01*
X163766942Y-85553257D02*
X163838371Y-85553257D01*
X163838371Y-85553257D02*
X163885990Y-85577066D01*
X163885990Y-85577066D02*
X163909800Y-85600876D01*
X163909800Y-85600876D02*
X163933609Y-85648495D01*
X163933609Y-85648495D02*
X163933609Y-85838971D01*
X163933609Y-85838971D02*
X163433609Y-85838971D01*
X163433609Y-85838971D02*
X163433609Y-85672304D01*
X163433609Y-85672304D02*
X163457419Y-85624685D01*
X163457419Y-85624685D02*
X163481228Y-85600876D01*
X163481228Y-85600876D02*
X163528847Y-85577066D01*
X163528847Y-85577066D02*
X163576466Y-85577066D01*
X163576466Y-85577066D02*
X163624085Y-85600876D01*
X163624085Y-85600876D02*
X163647895Y-85624685D01*
X163647895Y-85624685D02*
X163671704Y-85672304D01*
X163671704Y-85672304D02*
X163671704Y-85838971D01*
X163933609Y-85338971D02*
X163433609Y-85338971D01*
X163933609Y-85100876D02*
X163433609Y-85100876D01*
X163433609Y-85100876D02*
X163933609Y-84815162D01*
X163933609Y-84815162D02*
X163433609Y-84815162D01*
X156446741Y-70457419D02*
X156399122Y-70433609D01*
X156399122Y-70433609D02*
X156327693Y-70433609D01*
X156327693Y-70433609D02*
X156256265Y-70457419D01*
X156256265Y-70457419D02*
X156208646Y-70505038D01*
X156208646Y-70505038D02*
X156184836Y-70552657D01*
X156184836Y-70552657D02*
X156161027Y-70647895D01*
X156161027Y-70647895D02*
X156161027Y-70719323D01*
X156161027Y-70719323D02*
X156184836Y-70814561D01*
X156184836Y-70814561D02*
X156208646Y-70862180D01*
X156208646Y-70862180D02*
X156256265Y-70909800D01*
X156256265Y-70909800D02*
X156327693Y-70933609D01*
X156327693Y-70933609D02*
X156375312Y-70933609D01*
X156375312Y-70933609D02*
X156446741Y-70909800D01*
X156446741Y-70909800D02*
X156470550Y-70885990D01*
X156470550Y-70885990D02*
X156470550Y-70719323D01*
X156470550Y-70719323D02*
X156375312Y-70719323D01*
X156684836Y-70933609D02*
X156684836Y-70433609D01*
X156684836Y-70433609D02*
X156875312Y-70433609D01*
X156875312Y-70433609D02*
X156922931Y-70457419D01*
X156922931Y-70457419D02*
X156946741Y-70481228D01*
X156946741Y-70481228D02*
X156970550Y-70528847D01*
X156970550Y-70528847D02*
X156970550Y-70600276D01*
X156970550Y-70600276D02*
X156946741Y-70647895D01*
X156946741Y-70647895D02*
X156922931Y-70671704D01*
X156922931Y-70671704D02*
X156875312Y-70695514D01*
X156875312Y-70695514D02*
X156684836Y-70695514D01*
X157184836Y-70933609D02*
X157184836Y-70433609D01*
X157518169Y-70433609D02*
X157613407Y-70433609D01*
X157613407Y-70433609D02*
X157661026Y-70457419D01*
X157661026Y-70457419D02*
X157708645Y-70505038D01*
X157708645Y-70505038D02*
X157732455Y-70600276D01*
X157732455Y-70600276D02*
X157732455Y-70766942D01*
X157732455Y-70766942D02*
X157708645Y-70862180D01*
X157708645Y-70862180D02*
X157661026Y-70909800D01*
X157661026Y-70909800D02*
X157613407Y-70933609D01*
X157613407Y-70933609D02*
X157518169Y-70933609D01*
X157518169Y-70933609D02*
X157470550Y-70909800D01*
X157470550Y-70909800D02*
X157422931Y-70862180D01*
X157422931Y-70862180D02*
X157399122Y-70766942D01*
X157399122Y-70766942D02*
X157399122Y-70600276D01*
X157399122Y-70600276D02*
X157422931Y-70505038D01*
X157422931Y-70505038D02*
X157470550Y-70457419D01*
X157470550Y-70457419D02*
X157518169Y-70433609D01*
D10*
X106500000Y-71000000D02*
X158000000Y-71000000D01*
X158000000Y-76000000D01*
X106500000Y-76000000D01*
X106500000Y-71000000D01*
D11*
X100851503Y-91671704D02*
X100922931Y-91695514D01*
X100922931Y-91695514D02*
X100946741Y-91719323D01*
X100946741Y-91719323D02*
X100970550Y-91766942D01*
X100970550Y-91766942D02*
X100970550Y-91838371D01*
X100970550Y-91838371D02*
X100946741Y-91885990D01*
X100946741Y-91885990D02*
X100922931Y-91909800D01*
X100922931Y-91909800D02*
X100875312Y-91933609D01*
X100875312Y-91933609D02*
X100684836Y-91933609D01*
X100684836Y-91933609D02*
X100684836Y-91433609D01*
X100684836Y-91433609D02*
X100851503Y-91433609D01*
X100851503Y-91433609D02*
X100899122Y-91457419D01*
X100899122Y-91457419D02*
X100922931Y-91481228D01*
X100922931Y-91481228D02*
X100946741Y-91528847D01*
X100946741Y-91528847D02*
X100946741Y-91576466D01*
X100946741Y-91576466D02*
X100922931Y-91624085D01*
X100922931Y-91624085D02*
X100899122Y-91647895D01*
X100899122Y-91647895D02*
X100851503Y-91671704D01*
X100851503Y-91671704D02*
X100684836Y-91671704D01*
X101137217Y-91433609D02*
X101470550Y-91433609D01*
X101470550Y-91433609D02*
X101137217Y-91933609D01*
X101137217Y-91933609D02*
X101470550Y-91933609D01*
X101613407Y-91433609D02*
X101946740Y-91433609D01*
X101946740Y-91433609D02*
X101613407Y-91933609D01*
X101613407Y-91933609D02*
X101946740Y-91933609D01*
X102137216Y-91671704D02*
X102303883Y-91671704D01*
X102375311Y-91933609D02*
X102137216Y-91933609D01*
X102137216Y-91933609D02*
X102137216Y-91433609D01*
X102137216Y-91433609D02*
X102375311Y-91433609D01*
X102875311Y-91933609D02*
X102708645Y-91695514D01*
X102589597Y-91933609D02*
X102589597Y-91433609D01*
X102589597Y-91433609D02*
X102780073Y-91433609D01*
X102780073Y-91433609D02*
X102827692Y-91457419D01*
X102827692Y-91457419D02*
X102851502Y-91481228D01*
X102851502Y-91481228D02*
X102875311Y-91528847D01*
X102875311Y-91528847D02*
X102875311Y-91600276D01*
X102875311Y-91600276D02*
X102851502Y-91647895D01*
X102851502Y-91647895D02*
X102827692Y-91671704D01*
X102827692Y-91671704D02*
X102780073Y-91695514D01*
X102780073Y-91695514D02*
X102589597Y-91695514D01*
X110661027Y-91909800D02*
X110732455Y-91933609D01*
X110732455Y-91933609D02*
X110851503Y-91933609D01*
X110851503Y-91933609D02*
X110899122Y-91909800D01*
X110899122Y-91909800D02*
X110922931Y-91885990D01*
X110922931Y-91885990D02*
X110946741Y-91838371D01*
X110946741Y-91838371D02*
X110946741Y-91790752D01*
X110946741Y-91790752D02*
X110922931Y-91743133D01*
X110922931Y-91743133D02*
X110899122Y-91719323D01*
X110899122Y-91719323D02*
X110851503Y-91695514D01*
X110851503Y-91695514D02*
X110756265Y-91671704D01*
X110756265Y-91671704D02*
X110708646Y-91647895D01*
X110708646Y-91647895D02*
X110684836Y-91624085D01*
X110684836Y-91624085D02*
X110661027Y-91576466D01*
X110661027Y-91576466D02*
X110661027Y-91528847D01*
X110661027Y-91528847D02*
X110684836Y-91481228D01*
X110684836Y-91481228D02*
X110708646Y-91457419D01*
X110708646Y-91457419D02*
X110756265Y-91433609D01*
X110756265Y-91433609D02*
X110875312Y-91433609D01*
X110875312Y-91433609D02*
X110946741Y-91457419D01*
X111161026Y-91671704D02*
X111327693Y-91671704D01*
X111399121Y-91933609D02*
X111161026Y-91933609D01*
X111161026Y-91933609D02*
X111161026Y-91433609D01*
X111161026Y-91433609D02*
X111399121Y-91433609D01*
X111541979Y-91433609D02*
X111827693Y-91433609D01*
X111684836Y-91933609D02*
X111684836Y-91433609D01*
X111994359Y-91433609D02*
X111994359Y-91838371D01*
X111994359Y-91838371D02*
X112018169Y-91885990D01*
X112018169Y-91885990D02*
X112041978Y-91909800D01*
X112041978Y-91909800D02*
X112089597Y-91933609D01*
X112089597Y-91933609D02*
X112184835Y-91933609D01*
X112184835Y-91933609D02*
X112232454Y-91909800D01*
X112232454Y-91909800D02*
X112256264Y-91885990D01*
X112256264Y-91885990D02*
X112280073Y-91838371D01*
X112280073Y-91838371D02*
X112280073Y-91433609D01*
X112518169Y-91933609D02*
X112518169Y-91433609D01*
X112518169Y-91433609D02*
X112708645Y-91433609D01*
X112708645Y-91433609D02*
X112756264Y-91457419D01*
X112756264Y-91457419D02*
X112780074Y-91481228D01*
X112780074Y-91481228D02*
X112803883Y-91528847D01*
X112803883Y-91528847D02*
X112803883Y-91600276D01*
X112803883Y-91600276D02*
X112780074Y-91647895D01*
X112780074Y-91647895D02*
X112756264Y-91671704D01*
X112756264Y-91671704D02*
X112708645Y-91695514D01*
X112708645Y-91695514D02*
X112518169Y-91695514D01*
X113565788Y-91671704D02*
X113637216Y-91695514D01*
X113637216Y-91695514D02*
X113661026Y-91719323D01*
X113661026Y-91719323D02*
X113684835Y-91766942D01*
X113684835Y-91766942D02*
X113684835Y-91838371D01*
X113684835Y-91838371D02*
X113661026Y-91885990D01*
X113661026Y-91885990D02*
X113637216Y-91909800D01*
X113637216Y-91909800D02*
X113589597Y-91933609D01*
X113589597Y-91933609D02*
X113399121Y-91933609D01*
X113399121Y-91933609D02*
X113399121Y-91433609D01*
X113399121Y-91433609D02*
X113565788Y-91433609D01*
X113565788Y-91433609D02*
X113613407Y-91457419D01*
X113613407Y-91457419D02*
X113637216Y-91481228D01*
X113637216Y-91481228D02*
X113661026Y-91528847D01*
X113661026Y-91528847D02*
X113661026Y-91576466D01*
X113661026Y-91576466D02*
X113637216Y-91624085D01*
X113637216Y-91624085D02*
X113613407Y-91647895D01*
X113613407Y-91647895D02*
X113565788Y-91671704D01*
X113565788Y-91671704D02*
X113399121Y-91671704D01*
X113827693Y-91433609D02*
X114113407Y-91433609D01*
X113970550Y-91933609D02*
X113970550Y-91433609D01*
X114280073Y-91933609D02*
X114280073Y-91433609D01*
X114280073Y-91433609D02*
X114565787Y-91933609D01*
X114565787Y-91933609D02*
X114565787Y-91433609D01*
X125933609Y-98362782D02*
X125933609Y-98053258D01*
X125933609Y-98053258D02*
X126124085Y-98219925D01*
X126124085Y-98219925D02*
X126124085Y-98148496D01*
X126124085Y-98148496D02*
X126147895Y-98100877D01*
X126147895Y-98100877D02*
X126171704Y-98077068D01*
X126171704Y-98077068D02*
X126219323Y-98053258D01*
X126219323Y-98053258D02*
X126338371Y-98053258D01*
X126338371Y-98053258D02*
X126385990Y-98077068D01*
X126385990Y-98077068D02*
X126409800Y-98100877D01*
X126409800Y-98100877D02*
X126433609Y-98148496D01*
X126433609Y-98148496D02*
X126433609Y-98291353D01*
X126433609Y-98291353D02*
X126409800Y-98338972D01*
X126409800Y-98338972D02*
X126385990Y-98362782D01*
X126243133Y-97838973D02*
X126243133Y-97458021D01*
X126290752Y-97243734D02*
X126290752Y-97005639D01*
X126433609Y-97291353D02*
X125933609Y-97124687D01*
X125933609Y-97124687D02*
X126433609Y-96958020D01*
X125933609Y-96838973D02*
X126433609Y-96505640D01*
X125933609Y-96505640D02*
X126433609Y-96838973D01*
X126433609Y-96315164D02*
X125933609Y-96315164D01*
X126409800Y-96100878D02*
X126433609Y-96029450D01*
X126433609Y-96029450D02*
X126433609Y-95910402D01*
X126433609Y-95910402D02*
X126409800Y-95862783D01*
X126409800Y-95862783D02*
X126385990Y-95838974D01*
X126385990Y-95838974D02*
X126338371Y-95815164D01*
X126338371Y-95815164D02*
X126290752Y-95815164D01*
X126290752Y-95815164D02*
X126243133Y-95838974D01*
X126243133Y-95838974D02*
X126219323Y-95862783D01*
X126219323Y-95862783D02*
X126195514Y-95910402D01*
X126195514Y-95910402D02*
X126171704Y-96005640D01*
X126171704Y-96005640D02*
X126147895Y-96053259D01*
X126147895Y-96053259D02*
X126124085Y-96077069D01*
X126124085Y-96077069D02*
X126076466Y-96100878D01*
X126076466Y-96100878D02*
X126028847Y-96100878D01*
X126028847Y-96100878D02*
X125981228Y-96077069D01*
X125981228Y-96077069D02*
X125957419Y-96053259D01*
X125957419Y-96053259D02*
X125933609Y-96005640D01*
X125933609Y-96005640D02*
X125933609Y-95886593D01*
X125933609Y-95886593D02*
X125957419Y-95815164D01*
X119957419Y-90053258D02*
X119933609Y-90100877D01*
X119933609Y-90100877D02*
X119933609Y-90172306D01*
X119933609Y-90172306D02*
X119957419Y-90243734D01*
X119957419Y-90243734D02*
X120005038Y-90291353D01*
X120005038Y-90291353D02*
X120052657Y-90315163D01*
X120052657Y-90315163D02*
X120147895Y-90338972D01*
X120147895Y-90338972D02*
X120219323Y-90338972D01*
X120219323Y-90338972D02*
X120314561Y-90315163D01*
X120314561Y-90315163D02*
X120362180Y-90291353D01*
X120362180Y-90291353D02*
X120409800Y-90243734D01*
X120409800Y-90243734D02*
X120433609Y-90172306D01*
X120433609Y-90172306D02*
X120433609Y-90124687D01*
X120433609Y-90124687D02*
X120409800Y-90053258D01*
X120409800Y-90053258D02*
X120385990Y-90029449D01*
X120385990Y-90029449D02*
X120219323Y-90029449D01*
X120219323Y-90029449D02*
X120219323Y-90124687D01*
X120433609Y-89815163D02*
X119933609Y-89815163D01*
X119933609Y-89815163D02*
X119933609Y-89624687D01*
X119933609Y-89624687D02*
X119957419Y-89577068D01*
X119957419Y-89577068D02*
X119981228Y-89553258D01*
X119981228Y-89553258D02*
X120028847Y-89529449D01*
X120028847Y-89529449D02*
X120100276Y-89529449D01*
X120100276Y-89529449D02*
X120147895Y-89553258D01*
X120147895Y-89553258D02*
X120171704Y-89577068D01*
X120171704Y-89577068D02*
X120195514Y-89624687D01*
X120195514Y-89624687D02*
X120195514Y-89815163D01*
X120409800Y-89338972D02*
X120433609Y-89267544D01*
X120433609Y-89267544D02*
X120433609Y-89148496D01*
X120433609Y-89148496D02*
X120409800Y-89100877D01*
X120409800Y-89100877D02*
X120385990Y-89077068D01*
X120385990Y-89077068D02*
X120338371Y-89053258D01*
X120338371Y-89053258D02*
X120290752Y-89053258D01*
X120290752Y-89053258D02*
X120243133Y-89077068D01*
X120243133Y-89077068D02*
X120219323Y-89100877D01*
X120219323Y-89100877D02*
X120195514Y-89148496D01*
X120195514Y-89148496D02*
X120171704Y-89243734D01*
X120171704Y-89243734D02*
X120147895Y-89291353D01*
X120147895Y-89291353D02*
X120124085Y-89315163D01*
X120124085Y-89315163D02*
X120076466Y-89338972D01*
X120076466Y-89338972D02*
X120028847Y-89338972D01*
X120028847Y-89338972D02*
X119981228Y-89315163D01*
X119981228Y-89315163D02*
X119957419Y-89291353D01*
X119957419Y-89291353D02*
X119933609Y-89243734D01*
X119933609Y-89243734D02*
X119933609Y-89124687D01*
X119933609Y-89124687D02*
X119957419Y-89053258D01*
X134851503Y-82671704D02*
X134684836Y-82671704D01*
X134684836Y-82933609D02*
X134684836Y-82433609D01*
X134684836Y-82433609D02*
X134922931Y-82433609D01*
X135184836Y-82933609D02*
X135137217Y-82909800D01*
X135137217Y-82909800D02*
X135113407Y-82885990D01*
X135113407Y-82885990D02*
X135089598Y-82838371D01*
X135089598Y-82838371D02*
X135089598Y-82695514D01*
X135089598Y-82695514D02*
X135113407Y-82647895D01*
X135113407Y-82647895D02*
X135137217Y-82624085D01*
X135137217Y-82624085D02*
X135184836Y-82600276D01*
X135184836Y-82600276D02*
X135256264Y-82600276D01*
X135256264Y-82600276D02*
X135303883Y-82624085D01*
X135303883Y-82624085D02*
X135327693Y-82647895D01*
X135327693Y-82647895D02*
X135351502Y-82695514D01*
X135351502Y-82695514D02*
X135351502Y-82838371D01*
X135351502Y-82838371D02*
X135327693Y-82885990D01*
X135327693Y-82885990D02*
X135303883Y-82909800D01*
X135303883Y-82909800D02*
X135256264Y-82933609D01*
X135256264Y-82933609D02*
X135184836Y-82933609D01*
X135565788Y-82933609D02*
X135565788Y-82600276D01*
X135565788Y-82695514D02*
X135589598Y-82647895D01*
X135589598Y-82647895D02*
X135613407Y-82624085D01*
X135613407Y-82624085D02*
X135661026Y-82600276D01*
X135661026Y-82600276D02*
X135708645Y-82600276D01*
X136470550Y-82600276D02*
X136470550Y-82933609D01*
X136256264Y-82600276D02*
X136256264Y-82862180D01*
X136256264Y-82862180D02*
X136280074Y-82909800D01*
X136280074Y-82909800D02*
X136327693Y-82933609D01*
X136327693Y-82933609D02*
X136399121Y-82933609D01*
X136399121Y-82933609D02*
X136446740Y-82909800D01*
X136446740Y-82909800D02*
X136470550Y-82885990D01*
X136684836Y-82909800D02*
X136732455Y-82933609D01*
X136732455Y-82933609D02*
X136827693Y-82933609D01*
X136827693Y-82933609D02*
X136875312Y-82909800D01*
X136875312Y-82909800D02*
X136899121Y-82862180D01*
X136899121Y-82862180D02*
X136899121Y-82838371D01*
X136899121Y-82838371D02*
X136875312Y-82790752D01*
X136875312Y-82790752D02*
X136827693Y-82766942D01*
X136827693Y-82766942D02*
X136756264Y-82766942D01*
X136756264Y-82766942D02*
X136708645Y-82743133D01*
X136708645Y-82743133D02*
X136684836Y-82695514D01*
X136684836Y-82695514D02*
X136684836Y-82671704D01*
X136684836Y-82671704D02*
X136708645Y-82624085D01*
X136708645Y-82624085D02*
X136756264Y-82600276D01*
X136756264Y-82600276D02*
X136827693Y-82600276D01*
X136827693Y-82600276D02*
X136875312Y-82624085D01*
X137303883Y-82909800D02*
X137256264Y-82933609D01*
X137256264Y-82933609D02*
X137161026Y-82933609D01*
X137161026Y-82933609D02*
X137113407Y-82909800D01*
X137113407Y-82909800D02*
X137089598Y-82862180D01*
X137089598Y-82862180D02*
X137089598Y-82671704D01*
X137089598Y-82671704D02*
X137113407Y-82624085D01*
X137113407Y-82624085D02*
X137161026Y-82600276D01*
X137161026Y-82600276D02*
X137256264Y-82600276D01*
X137256264Y-82600276D02*
X137303883Y-82624085D01*
X137303883Y-82624085D02*
X137327693Y-82671704D01*
X137327693Y-82671704D02*
X137327693Y-82719323D01*
X137327693Y-82719323D02*
X137089598Y-82766942D01*
X137875311Y-82600276D02*
X137970549Y-82933609D01*
X137970549Y-82933609D02*
X138065787Y-82695514D01*
X138065787Y-82695514D02*
X138161025Y-82933609D01*
X138161025Y-82933609D02*
X138256263Y-82600276D01*
X138446740Y-82933609D02*
X138446740Y-82600276D01*
X138446740Y-82433609D02*
X138422931Y-82457419D01*
X138422931Y-82457419D02*
X138446740Y-82481228D01*
X138446740Y-82481228D02*
X138470550Y-82457419D01*
X138470550Y-82457419D02*
X138446740Y-82433609D01*
X138446740Y-82433609D02*
X138446740Y-82481228D01*
X138613407Y-82600276D02*
X138803883Y-82600276D01*
X138684835Y-82433609D02*
X138684835Y-82862180D01*
X138684835Y-82862180D02*
X138708645Y-82909800D01*
X138708645Y-82909800D02*
X138756264Y-82933609D01*
X138756264Y-82933609D02*
X138803883Y-82933609D01*
X138970549Y-82933609D02*
X138970549Y-82433609D01*
X139184835Y-82933609D02*
X139184835Y-82671704D01*
X139184835Y-82671704D02*
X139161025Y-82624085D01*
X139161025Y-82624085D02*
X139113406Y-82600276D01*
X139113406Y-82600276D02*
X139041978Y-82600276D01*
X139041978Y-82600276D02*
X138994359Y-82624085D01*
X138994359Y-82624085D02*
X138970549Y-82647895D01*
X140089596Y-82933609D02*
X139922930Y-82695514D01*
X139803882Y-82933609D02*
X139803882Y-82433609D01*
X139803882Y-82433609D02*
X139994358Y-82433609D01*
X139994358Y-82433609D02*
X140041977Y-82457419D01*
X140041977Y-82457419D02*
X140065787Y-82481228D01*
X140065787Y-82481228D02*
X140089596Y-82528847D01*
X140089596Y-82528847D02*
X140089596Y-82600276D01*
X140089596Y-82600276D02*
X140065787Y-82647895D01*
X140065787Y-82647895D02*
X140041977Y-82671704D01*
X140041977Y-82671704D02*
X139994358Y-82695514D01*
X139994358Y-82695514D02*
X139803882Y-82695514D01*
X140518168Y-82933609D02*
X140518168Y-82671704D01*
X140518168Y-82671704D02*
X140494358Y-82624085D01*
X140494358Y-82624085D02*
X140446739Y-82600276D01*
X140446739Y-82600276D02*
X140351501Y-82600276D01*
X140351501Y-82600276D02*
X140303882Y-82624085D01*
X140518168Y-82909800D02*
X140470549Y-82933609D01*
X140470549Y-82933609D02*
X140351501Y-82933609D01*
X140351501Y-82933609D02*
X140303882Y-82909800D01*
X140303882Y-82909800D02*
X140280073Y-82862180D01*
X140280073Y-82862180D02*
X140280073Y-82814561D01*
X140280073Y-82814561D02*
X140303882Y-82766942D01*
X140303882Y-82766942D02*
X140351501Y-82743133D01*
X140351501Y-82743133D02*
X140470549Y-82743133D01*
X140470549Y-82743133D02*
X140518168Y-82719323D01*
X140732454Y-82909800D02*
X140780073Y-82933609D01*
X140780073Y-82933609D02*
X140875311Y-82933609D01*
X140875311Y-82933609D02*
X140922930Y-82909800D01*
X140922930Y-82909800D02*
X140946739Y-82862180D01*
X140946739Y-82862180D02*
X140946739Y-82838371D01*
X140946739Y-82838371D02*
X140922930Y-82790752D01*
X140922930Y-82790752D02*
X140875311Y-82766942D01*
X140875311Y-82766942D02*
X140803882Y-82766942D01*
X140803882Y-82766942D02*
X140756263Y-82743133D01*
X140756263Y-82743133D02*
X140732454Y-82695514D01*
X140732454Y-82695514D02*
X140732454Y-82671704D01*
X140732454Y-82671704D02*
X140756263Y-82624085D01*
X140756263Y-82624085D02*
X140803882Y-82600276D01*
X140803882Y-82600276D02*
X140875311Y-82600276D01*
X140875311Y-82600276D02*
X140922930Y-82624085D01*
X141161025Y-82600276D02*
X141161025Y-83100276D01*
X141161025Y-82624085D02*
X141208644Y-82600276D01*
X141208644Y-82600276D02*
X141303882Y-82600276D01*
X141303882Y-82600276D02*
X141351501Y-82624085D01*
X141351501Y-82624085D02*
X141375311Y-82647895D01*
X141375311Y-82647895D02*
X141399120Y-82695514D01*
X141399120Y-82695514D02*
X141399120Y-82838371D01*
X141399120Y-82838371D02*
X141375311Y-82885990D01*
X141375311Y-82885990D02*
X141351501Y-82909800D01*
X141351501Y-82909800D02*
X141303882Y-82933609D01*
X141303882Y-82933609D02*
X141208644Y-82933609D01*
X141208644Y-82933609D02*
X141161025Y-82909800D01*
X141613406Y-82933609D02*
X141613406Y-82433609D01*
X141613406Y-82624085D02*
X141661025Y-82600276D01*
X141661025Y-82600276D02*
X141756263Y-82600276D01*
X141756263Y-82600276D02*
X141803882Y-82624085D01*
X141803882Y-82624085D02*
X141827692Y-82647895D01*
X141827692Y-82647895D02*
X141851501Y-82695514D01*
X141851501Y-82695514D02*
X141851501Y-82838371D01*
X141851501Y-82838371D02*
X141827692Y-82885990D01*
X141827692Y-82885990D02*
X141803882Y-82909800D01*
X141803882Y-82909800D02*
X141756263Y-82933609D01*
X141756263Y-82933609D02*
X141661025Y-82933609D01*
X141661025Y-82933609D02*
X141613406Y-82909800D01*
X142256263Y-82909800D02*
X142208644Y-82933609D01*
X142208644Y-82933609D02*
X142113406Y-82933609D01*
X142113406Y-82933609D02*
X142065787Y-82909800D01*
X142065787Y-82909800D02*
X142041978Y-82862180D01*
X142041978Y-82862180D02*
X142041978Y-82671704D01*
X142041978Y-82671704D02*
X142065787Y-82624085D01*
X142065787Y-82624085D02*
X142113406Y-82600276D01*
X142113406Y-82600276D02*
X142208644Y-82600276D01*
X142208644Y-82600276D02*
X142256263Y-82624085D01*
X142256263Y-82624085D02*
X142280073Y-82671704D01*
X142280073Y-82671704D02*
X142280073Y-82719323D01*
X142280073Y-82719323D02*
X142041978Y-82766942D01*
X142494358Y-82933609D02*
X142494358Y-82600276D01*
X142494358Y-82695514D02*
X142518168Y-82647895D01*
X142518168Y-82647895D02*
X142541977Y-82624085D01*
X142541977Y-82624085D02*
X142589596Y-82600276D01*
X142589596Y-82600276D02*
X142637215Y-82600276D01*
X142803882Y-82933609D02*
X142803882Y-82600276D01*
X142803882Y-82695514D02*
X142827692Y-82647895D01*
X142827692Y-82647895D02*
X142851501Y-82624085D01*
X142851501Y-82624085D02*
X142899120Y-82600276D01*
X142899120Y-82600276D02*
X142946739Y-82600276D01*
X143065787Y-82600276D02*
X143184835Y-82933609D01*
X143303882Y-82600276D02*
X143184835Y-82933609D01*
X143184835Y-82933609D02*
X143137216Y-83052657D01*
X143137216Y-83052657D02*
X143113406Y-83076466D01*
X143113406Y-83076466D02*
X143065787Y-83100276D01*
X143875310Y-82933609D02*
X143875310Y-82433609D01*
X143875310Y-82433609D02*
X144065786Y-82433609D01*
X144065786Y-82433609D02*
X144113405Y-82457419D01*
X144113405Y-82457419D02*
X144137215Y-82481228D01*
X144137215Y-82481228D02*
X144161024Y-82528847D01*
X144161024Y-82528847D02*
X144161024Y-82600276D01*
X144161024Y-82600276D02*
X144137215Y-82647895D01*
X144137215Y-82647895D02*
X144113405Y-82671704D01*
X144113405Y-82671704D02*
X144065786Y-82695514D01*
X144065786Y-82695514D02*
X143875310Y-82695514D01*
X144375310Y-82933609D02*
X144375310Y-82600276D01*
X144375310Y-82433609D02*
X144351501Y-82457419D01*
X144351501Y-82457419D02*
X144375310Y-82481228D01*
X144375310Y-82481228D02*
X144399120Y-82457419D01*
X144399120Y-82457419D02*
X144375310Y-82433609D01*
X144375310Y-82433609D02*
X144375310Y-82481228D01*
X144946738Y-82433609D02*
X145280071Y-82433609D01*
X145280071Y-82433609D02*
X144946738Y-82933609D01*
X144946738Y-82933609D02*
X145280071Y-82933609D01*
X145661023Y-82909800D02*
X145613404Y-82933609D01*
X145613404Y-82933609D02*
X145518166Y-82933609D01*
X145518166Y-82933609D02*
X145470547Y-82909800D01*
X145470547Y-82909800D02*
X145446738Y-82862180D01*
X145446738Y-82862180D02*
X145446738Y-82671704D01*
X145446738Y-82671704D02*
X145470547Y-82624085D01*
X145470547Y-82624085D02*
X145518166Y-82600276D01*
X145518166Y-82600276D02*
X145613404Y-82600276D01*
X145613404Y-82600276D02*
X145661023Y-82624085D01*
X145661023Y-82624085D02*
X145684833Y-82671704D01*
X145684833Y-82671704D02*
X145684833Y-82719323D01*
X145684833Y-82719323D02*
X145446738Y-82766942D01*
X145899118Y-82933609D02*
X145899118Y-82600276D01*
X145899118Y-82695514D02*
X145922928Y-82647895D01*
X145922928Y-82647895D02*
X145946737Y-82624085D01*
X145946737Y-82624085D02*
X145994356Y-82600276D01*
X145994356Y-82600276D02*
X146041975Y-82600276D01*
X146280071Y-82933609D02*
X146232452Y-82909800D01*
X146232452Y-82909800D02*
X146208642Y-82885990D01*
X146208642Y-82885990D02*
X146184833Y-82838371D01*
X146184833Y-82838371D02*
X146184833Y-82695514D01*
X146184833Y-82695514D02*
X146208642Y-82647895D01*
X146208642Y-82647895D02*
X146232452Y-82624085D01*
X146232452Y-82624085D02*
X146280071Y-82600276D01*
X146280071Y-82600276D02*
X146351499Y-82600276D01*
X146351499Y-82600276D02*
X146399118Y-82624085D01*
X146399118Y-82624085D02*
X146422928Y-82647895D01*
X146422928Y-82647895D02*
X146446737Y-82695514D01*
X146446737Y-82695514D02*
X146446737Y-82838371D01*
X146446737Y-82838371D02*
X146422928Y-82885990D01*
X146422928Y-82885990D02*
X146399118Y-82909800D01*
X146399118Y-82909800D02*
X146351499Y-82933609D01*
X146351499Y-82933609D02*
X146280071Y-82933609D01*
X146994356Y-82433609D02*
X147113404Y-82933609D01*
X147113404Y-82933609D02*
X147208642Y-82576466D01*
X147208642Y-82576466D02*
X147303880Y-82933609D01*
X147303880Y-82933609D02*
X147422928Y-82433609D01*
X140208646Y-79825314D02*
X140208646Y-79225314D01*
X140208646Y-79225314D02*
X140437217Y-79225314D01*
X140437217Y-79225314D02*
X140494360Y-79253885D01*
X140494360Y-79253885D02*
X140522931Y-79282457D01*
X140522931Y-79282457D02*
X140551503Y-79339600D01*
X140551503Y-79339600D02*
X140551503Y-79425314D01*
X140551503Y-79425314D02*
X140522931Y-79482457D01*
X140522931Y-79482457D02*
X140494360Y-79511028D01*
X140494360Y-79511028D02*
X140437217Y-79539600D01*
X140437217Y-79539600D02*
X140208646Y-79539600D01*
X140808646Y-79511028D02*
X141008646Y-79511028D01*
X141094360Y-79825314D02*
X140808646Y-79825314D01*
X140808646Y-79825314D02*
X140808646Y-79225314D01*
X140808646Y-79225314D02*
X141094360Y-79225314D01*
X141694360Y-79825314D02*
X141494360Y-79539600D01*
X141351503Y-79825314D02*
X141351503Y-79225314D01*
X141351503Y-79225314D02*
X141580074Y-79225314D01*
X141580074Y-79225314D02*
X141637217Y-79253885D01*
X141637217Y-79253885D02*
X141665788Y-79282457D01*
X141665788Y-79282457D02*
X141694360Y-79339600D01*
X141694360Y-79339600D02*
X141694360Y-79425314D01*
X141694360Y-79425314D02*
X141665788Y-79482457D01*
X141665788Y-79482457D02*
X141637217Y-79511028D01*
X141637217Y-79511028D02*
X141580074Y-79539600D01*
X141580074Y-79539600D02*
X141351503Y-79539600D01*
X141922931Y-79796743D02*
X142008646Y-79825314D01*
X142008646Y-79825314D02*
X142151503Y-79825314D01*
X142151503Y-79825314D02*
X142208646Y-79796743D01*
X142208646Y-79796743D02*
X142237217Y-79768171D01*
X142237217Y-79768171D02*
X142265788Y-79711028D01*
X142265788Y-79711028D02*
X142265788Y-79653885D01*
X142265788Y-79653885D02*
X142237217Y-79596743D01*
X142237217Y-79596743D02*
X142208646Y-79568171D01*
X142208646Y-79568171D02*
X142151503Y-79539600D01*
X142151503Y-79539600D02*
X142037217Y-79511028D01*
X142037217Y-79511028D02*
X141980074Y-79482457D01*
X141980074Y-79482457D02*
X141951503Y-79453885D01*
X141951503Y-79453885D02*
X141922931Y-79396743D01*
X141922931Y-79396743D02*
X141922931Y-79339600D01*
X141922931Y-79339600D02*
X141951503Y-79282457D01*
X141951503Y-79282457D02*
X141980074Y-79253885D01*
X141980074Y-79253885D02*
X142037217Y-79225314D01*
X142037217Y-79225314D02*
X142180074Y-79225314D01*
X142180074Y-79225314D02*
X142265788Y-79253885D01*
X142637217Y-79225314D02*
X142751503Y-79225314D01*
X142751503Y-79225314D02*
X142808646Y-79253885D01*
X142808646Y-79253885D02*
X142865789Y-79311028D01*
X142865789Y-79311028D02*
X142894360Y-79425314D01*
X142894360Y-79425314D02*
X142894360Y-79625314D01*
X142894360Y-79625314D02*
X142865789Y-79739600D01*
X142865789Y-79739600D02*
X142808646Y-79796743D01*
X142808646Y-79796743D02*
X142751503Y-79825314D01*
X142751503Y-79825314D02*
X142637217Y-79825314D01*
X142637217Y-79825314D02*
X142580075Y-79796743D01*
X142580075Y-79796743D02*
X142522932Y-79739600D01*
X142522932Y-79739600D02*
X142494360Y-79625314D01*
X142494360Y-79625314D02*
X142494360Y-79425314D01*
X142494360Y-79425314D02*
X142522932Y-79311028D01*
X142522932Y-79311028D02*
X142580075Y-79253885D01*
X142580075Y-79253885D02*
X142637217Y-79225314D01*
X143151503Y-79825314D02*
X143151503Y-79225314D01*
X143151503Y-79225314D02*
X143494360Y-79825314D01*
X143494360Y-79825314D02*
X143494360Y-79225314D01*
X143751502Y-79653885D02*
X144037217Y-79653885D01*
X143694359Y-79825314D02*
X143894359Y-79225314D01*
X143894359Y-79225314D02*
X144094359Y-79825314D01*
X144580074Y-79825314D02*
X144294360Y-79825314D01*
X144294360Y-79825314D02*
X144294360Y-79225314D01*
X145237217Y-79225314D02*
X145237217Y-79711028D01*
X145237217Y-79711028D02*
X145265788Y-79768171D01*
X145265788Y-79768171D02*
X145294360Y-79796743D01*
X145294360Y-79796743D02*
X145351502Y-79825314D01*
X145351502Y-79825314D02*
X145465788Y-79825314D01*
X145465788Y-79825314D02*
X145522931Y-79796743D01*
X145522931Y-79796743D02*
X145551502Y-79768171D01*
X145551502Y-79768171D02*
X145580074Y-79711028D01*
X145580074Y-79711028D02*
X145580074Y-79225314D01*
X145837216Y-79796743D02*
X145922931Y-79825314D01*
X145922931Y-79825314D02*
X146065788Y-79825314D01*
X146065788Y-79825314D02*
X146122931Y-79796743D01*
X146122931Y-79796743D02*
X146151502Y-79768171D01*
X146151502Y-79768171D02*
X146180073Y-79711028D01*
X146180073Y-79711028D02*
X146180073Y-79653885D01*
X146180073Y-79653885D02*
X146151502Y-79596743D01*
X146151502Y-79596743D02*
X146122931Y-79568171D01*
X146122931Y-79568171D02*
X146065788Y-79539600D01*
X146065788Y-79539600D02*
X145951502Y-79511028D01*
X145951502Y-79511028D02*
X145894359Y-79482457D01*
X145894359Y-79482457D02*
X145865788Y-79453885D01*
X145865788Y-79453885D02*
X145837216Y-79396743D01*
X145837216Y-79396743D02*
X145837216Y-79339600D01*
X145837216Y-79339600D02*
X145865788Y-79282457D01*
X145865788Y-79282457D02*
X145894359Y-79253885D01*
X145894359Y-79253885D02*
X145951502Y-79225314D01*
X145951502Y-79225314D02*
X146094359Y-79225314D01*
X146094359Y-79225314D02*
X146180073Y-79253885D01*
X146437217Y-79511028D02*
X146637217Y-79511028D01*
X146722931Y-79825314D02*
X146437217Y-79825314D01*
X146437217Y-79825314D02*
X146437217Y-79225314D01*
X146437217Y-79225314D02*
X146722931Y-79225314D01*
X147551502Y-79225314D02*
X147665788Y-79225314D01*
X147665788Y-79225314D02*
X147722931Y-79253885D01*
X147722931Y-79253885D02*
X147780074Y-79311028D01*
X147780074Y-79311028D02*
X147808645Y-79425314D01*
X147808645Y-79425314D02*
X147808645Y-79625314D01*
X147808645Y-79625314D02*
X147780074Y-79739600D01*
X147780074Y-79739600D02*
X147722931Y-79796743D01*
X147722931Y-79796743D02*
X147665788Y-79825314D01*
X147665788Y-79825314D02*
X147551502Y-79825314D01*
X147551502Y-79825314D02*
X147494360Y-79796743D01*
X147494360Y-79796743D02*
X147437217Y-79739600D01*
X147437217Y-79739600D02*
X147408645Y-79625314D01*
X147408645Y-79625314D02*
X147408645Y-79425314D01*
X147408645Y-79425314D02*
X147437217Y-79311028D01*
X147437217Y-79311028D02*
X147494360Y-79253885D01*
X147494360Y-79253885D02*
X147551502Y-79225314D01*
X148065788Y-79825314D02*
X148065788Y-79225314D01*
X148065788Y-79225314D02*
X148408645Y-79825314D01*
X148408645Y-79825314D02*
X148408645Y-79225314D01*
X148980073Y-79825314D02*
X148694359Y-79825314D01*
X148694359Y-79825314D02*
X148694359Y-79225314D01*
X149294358Y-79539600D02*
X149294358Y-79825314D01*
X149094358Y-79225314D02*
X149294358Y-79539600D01*
X149294358Y-79539600D02*
X149494358Y-79225314D01*
D10*
X134692114Y-77096057D02*
X156500000Y-77096057D01*
X156500000Y-81903943D01*
X134692114Y-81903943D01*
X134692114Y-77096057D01*
D12*
X140271929Y-78809956D02*
X140271929Y-78109956D01*
X140271929Y-78109956D02*
X140538596Y-78109956D01*
X140538596Y-78109956D02*
X140605263Y-78143289D01*
X140605263Y-78143289D02*
X140638596Y-78176623D01*
X140638596Y-78176623D02*
X140671929Y-78243289D01*
X140671929Y-78243289D02*
X140671929Y-78343289D01*
X140671929Y-78343289D02*
X140638596Y-78409956D01*
X140638596Y-78409956D02*
X140605263Y-78443289D01*
X140605263Y-78443289D02*
X140538596Y-78476623D01*
X140538596Y-78476623D02*
X140271929Y-78476623D01*
X140971929Y-78809956D02*
X140971929Y-78343289D01*
X140971929Y-78109956D02*
X140938596Y-78143289D01*
X140938596Y-78143289D02*
X140971929Y-78176623D01*
X140971929Y-78176623D02*
X141005263Y-78143289D01*
X141005263Y-78143289D02*
X140971929Y-78109956D01*
X140971929Y-78109956D02*
X140971929Y-78176623D01*
X141705262Y-78743289D02*
X141671929Y-78776623D01*
X141671929Y-78776623D02*
X141571929Y-78809956D01*
X141571929Y-78809956D02*
X141505262Y-78809956D01*
X141505262Y-78809956D02*
X141405262Y-78776623D01*
X141405262Y-78776623D02*
X141338596Y-78709956D01*
X141338596Y-78709956D02*
X141305262Y-78643289D01*
X141305262Y-78643289D02*
X141271929Y-78509956D01*
X141271929Y-78509956D02*
X141271929Y-78409956D01*
X141271929Y-78409956D02*
X141305262Y-78276623D01*
X141305262Y-78276623D02*
X141338596Y-78209956D01*
X141338596Y-78209956D02*
X141405262Y-78143289D01*
X141405262Y-78143289D02*
X141505262Y-78109956D01*
X141505262Y-78109956D02*
X141571929Y-78109956D01*
X141571929Y-78109956D02*
X141671929Y-78143289D01*
X141671929Y-78143289D02*
X141705262Y-78176623D01*
X142305262Y-78809956D02*
X142305262Y-78443289D01*
X142305262Y-78443289D02*
X142271929Y-78376623D01*
X142271929Y-78376623D02*
X142205262Y-78343289D01*
X142205262Y-78343289D02*
X142071929Y-78343289D01*
X142071929Y-78343289D02*
X142005262Y-78376623D01*
X142305262Y-78776623D02*
X142238596Y-78809956D01*
X142238596Y-78809956D02*
X142071929Y-78809956D01*
X142071929Y-78809956D02*
X142005262Y-78776623D01*
X142005262Y-78776623D02*
X141971929Y-78709956D01*
X141971929Y-78709956D02*
X141971929Y-78643289D01*
X141971929Y-78643289D02*
X142005262Y-78576623D01*
X142005262Y-78576623D02*
X142071929Y-78543289D01*
X142071929Y-78543289D02*
X142238596Y-78543289D01*
X142238596Y-78543289D02*
X142305262Y-78509956D01*
X142638595Y-78809956D02*
X142638595Y-78343289D01*
X142638595Y-78409956D02*
X142671929Y-78376623D01*
X142671929Y-78376623D02*
X142738595Y-78343289D01*
X142738595Y-78343289D02*
X142838595Y-78343289D01*
X142838595Y-78343289D02*
X142905262Y-78376623D01*
X142905262Y-78376623D02*
X142938595Y-78443289D01*
X142938595Y-78443289D02*
X142938595Y-78809956D01*
X142938595Y-78443289D02*
X142971929Y-78376623D01*
X142971929Y-78376623D02*
X143038595Y-78343289D01*
X143038595Y-78343289D02*
X143138595Y-78343289D01*
X143138595Y-78343289D02*
X143205262Y-78376623D01*
X143205262Y-78376623D02*
X143238595Y-78443289D01*
X143238595Y-78443289D02*
X143238595Y-78809956D01*
X144238595Y-78109956D02*
X144371928Y-78109956D01*
X144371928Y-78109956D02*
X144438595Y-78143289D01*
X144438595Y-78143289D02*
X144505261Y-78209956D01*
X144505261Y-78209956D02*
X144538595Y-78343289D01*
X144538595Y-78343289D02*
X144538595Y-78576623D01*
X144538595Y-78576623D02*
X144505261Y-78709956D01*
X144505261Y-78709956D02*
X144438595Y-78776623D01*
X144438595Y-78776623D02*
X144371928Y-78809956D01*
X144371928Y-78809956D02*
X144238595Y-78809956D01*
X144238595Y-78809956D02*
X144171928Y-78776623D01*
X144171928Y-78776623D02*
X144105261Y-78709956D01*
X144105261Y-78709956D02*
X144071928Y-78576623D01*
X144071928Y-78576623D02*
X144071928Y-78343289D01*
X144071928Y-78343289D02*
X144105261Y-78209956D01*
X144105261Y-78209956D02*
X144171928Y-78143289D01*
X144171928Y-78143289D02*
X144238595Y-78109956D01*
X144838594Y-78343289D02*
X144838594Y-78809956D01*
X144838594Y-78409956D02*
X144871928Y-78376623D01*
X144871928Y-78376623D02*
X144938594Y-78343289D01*
X144938594Y-78343289D02*
X145038594Y-78343289D01*
X145038594Y-78343289D02*
X145105261Y-78376623D01*
X145105261Y-78376623D02*
X145138594Y-78443289D01*
X145138594Y-78443289D02*
X145138594Y-78809956D01*
X145738594Y-78776623D02*
X145671927Y-78809956D01*
X145671927Y-78809956D02*
X145538594Y-78809956D01*
X145538594Y-78809956D02*
X145471927Y-78776623D01*
X145471927Y-78776623D02*
X145438594Y-78709956D01*
X145438594Y-78709956D02*
X145438594Y-78443289D01*
X145438594Y-78443289D02*
X145471927Y-78376623D01*
X145471927Y-78376623D02*
X145538594Y-78343289D01*
X145538594Y-78343289D02*
X145671927Y-78343289D01*
X145671927Y-78343289D02*
X145738594Y-78376623D01*
X145738594Y-78376623D02*
X145771927Y-78443289D01*
X145771927Y-78443289D02*
X145771927Y-78509956D01*
X145771927Y-78509956D02*
X145438594Y-78576623D01*
X146571927Y-78776623D02*
X146671927Y-78809956D01*
X146671927Y-78809956D02*
X146838594Y-78809956D01*
X146838594Y-78809956D02*
X146905260Y-78776623D01*
X146905260Y-78776623D02*
X146938594Y-78743289D01*
X146938594Y-78743289D02*
X146971927Y-78676623D01*
X146971927Y-78676623D02*
X146971927Y-78609956D01*
X146971927Y-78609956D02*
X146938594Y-78543289D01*
X146938594Y-78543289D02*
X146905260Y-78509956D01*
X146905260Y-78509956D02*
X146838594Y-78476623D01*
X146838594Y-78476623D02*
X146705260Y-78443289D01*
X146705260Y-78443289D02*
X146638594Y-78409956D01*
X146638594Y-78409956D02*
X146605260Y-78376623D01*
X146605260Y-78376623D02*
X146571927Y-78309956D01*
X146571927Y-78309956D02*
X146571927Y-78243289D01*
X146571927Y-78243289D02*
X146605260Y-78176623D01*
X146605260Y-78176623D02*
X146638594Y-78143289D01*
X146638594Y-78143289D02*
X146705260Y-78109956D01*
X146705260Y-78109956D02*
X146871927Y-78109956D01*
X146871927Y-78109956D02*
X146971927Y-78143289D01*
X147271927Y-78809956D02*
X147271927Y-78109956D01*
X147271927Y-78443289D02*
X147671927Y-78443289D01*
X147671927Y-78809956D02*
X147671927Y-78109956D01*
X148005260Y-78809956D02*
X148005260Y-78109956D01*
X148338593Y-78443289D02*
X148571927Y-78443289D01*
X148671927Y-78809956D02*
X148338593Y-78809956D01*
X148338593Y-78809956D02*
X148338593Y-78109956D01*
X148338593Y-78109956D02*
X148671927Y-78109956D01*
X149305260Y-78809956D02*
X148971926Y-78809956D01*
X148971926Y-78809956D02*
X148971926Y-78109956D01*
X149538593Y-78809956D02*
X149538593Y-78109956D01*
X149538593Y-78109956D02*
X149705260Y-78109956D01*
X149705260Y-78109956D02*
X149805260Y-78143289D01*
X149805260Y-78143289D02*
X149871927Y-78209956D01*
X149871927Y-78209956D02*
X149905260Y-78276623D01*
X149905260Y-78276623D02*
X149938593Y-78409956D01*
X149938593Y-78409956D02*
X149938593Y-78509956D01*
X149938593Y-78509956D02*
X149905260Y-78643289D01*
X149905260Y-78643289D02*
X149871927Y-78709956D01*
X149871927Y-78709956D02*
X149805260Y-78776623D01*
X149805260Y-78776623D02*
X149705260Y-78809956D01*
X149705260Y-78809956D02*
X149538593Y-78809956D01*
D11*
X140470550Y-80789933D02*
X140446741Y-80813743D01*
X140446741Y-80813743D02*
X140375312Y-80837552D01*
X140375312Y-80837552D02*
X140327693Y-80837552D01*
X140327693Y-80837552D02*
X140256265Y-80813743D01*
X140256265Y-80813743D02*
X140208646Y-80766123D01*
X140208646Y-80766123D02*
X140184836Y-80718504D01*
X140184836Y-80718504D02*
X140161027Y-80623266D01*
X140161027Y-80623266D02*
X140161027Y-80551838D01*
X140161027Y-80551838D02*
X140184836Y-80456600D01*
X140184836Y-80456600D02*
X140208646Y-80408981D01*
X140208646Y-80408981D02*
X140256265Y-80361362D01*
X140256265Y-80361362D02*
X140327693Y-80337552D01*
X140327693Y-80337552D02*
X140375312Y-80337552D01*
X140375312Y-80337552D02*
X140446741Y-80361362D01*
X140446741Y-80361362D02*
X140470550Y-80385171D01*
X140756265Y-80837552D02*
X140708646Y-80813743D01*
X140708646Y-80813743D02*
X140684836Y-80789933D01*
X140684836Y-80789933D02*
X140661027Y-80742314D01*
X140661027Y-80742314D02*
X140661027Y-80599457D01*
X140661027Y-80599457D02*
X140684836Y-80551838D01*
X140684836Y-80551838D02*
X140708646Y-80528028D01*
X140708646Y-80528028D02*
X140756265Y-80504219D01*
X140756265Y-80504219D02*
X140827693Y-80504219D01*
X140827693Y-80504219D02*
X140875312Y-80528028D01*
X140875312Y-80528028D02*
X140899122Y-80551838D01*
X140899122Y-80551838D02*
X140922931Y-80599457D01*
X140922931Y-80599457D02*
X140922931Y-80742314D01*
X140922931Y-80742314D02*
X140899122Y-80789933D01*
X140899122Y-80789933D02*
X140875312Y-80813743D01*
X140875312Y-80813743D02*
X140827693Y-80837552D01*
X140827693Y-80837552D02*
X140756265Y-80837552D01*
X141137217Y-80504219D02*
X141137217Y-81004219D01*
X141137217Y-80528028D02*
X141184836Y-80504219D01*
X141184836Y-80504219D02*
X141280074Y-80504219D01*
X141280074Y-80504219D02*
X141327693Y-80528028D01*
X141327693Y-80528028D02*
X141351503Y-80551838D01*
X141351503Y-80551838D02*
X141375312Y-80599457D01*
X141375312Y-80599457D02*
X141375312Y-80742314D01*
X141375312Y-80742314D02*
X141351503Y-80789933D01*
X141351503Y-80789933D02*
X141327693Y-80813743D01*
X141327693Y-80813743D02*
X141280074Y-80837552D01*
X141280074Y-80837552D02*
X141184836Y-80837552D01*
X141184836Y-80837552D02*
X141137217Y-80813743D01*
X141541979Y-80504219D02*
X141661027Y-80837552D01*
X141780074Y-80504219D02*
X141661027Y-80837552D01*
X141661027Y-80837552D02*
X141613408Y-80956600D01*
X141613408Y-80956600D02*
X141589598Y-80980409D01*
X141589598Y-80980409D02*
X141541979Y-81004219D01*
X141970550Y-80837552D02*
X141970550Y-80504219D01*
X141970550Y-80599457D02*
X141994360Y-80551838D01*
X141994360Y-80551838D02*
X142018169Y-80528028D01*
X142018169Y-80528028D02*
X142065788Y-80504219D01*
X142065788Y-80504219D02*
X142113407Y-80504219D01*
X142280074Y-80837552D02*
X142280074Y-80504219D01*
X142280074Y-80337552D02*
X142256265Y-80361362D01*
X142256265Y-80361362D02*
X142280074Y-80385171D01*
X142280074Y-80385171D02*
X142303884Y-80361362D01*
X142303884Y-80361362D02*
X142280074Y-80337552D01*
X142280074Y-80337552D02*
X142280074Y-80385171D01*
X142732455Y-80504219D02*
X142732455Y-80908981D01*
X142732455Y-80908981D02*
X142708645Y-80956600D01*
X142708645Y-80956600D02*
X142684836Y-80980409D01*
X142684836Y-80980409D02*
X142637217Y-81004219D01*
X142637217Y-81004219D02*
X142565788Y-81004219D01*
X142565788Y-81004219D02*
X142518169Y-80980409D01*
X142732455Y-80813743D02*
X142684836Y-80837552D01*
X142684836Y-80837552D02*
X142589598Y-80837552D01*
X142589598Y-80837552D02*
X142541979Y-80813743D01*
X142541979Y-80813743D02*
X142518169Y-80789933D01*
X142518169Y-80789933D02*
X142494360Y-80742314D01*
X142494360Y-80742314D02*
X142494360Y-80599457D01*
X142494360Y-80599457D02*
X142518169Y-80551838D01*
X142518169Y-80551838D02*
X142541979Y-80528028D01*
X142541979Y-80528028D02*
X142589598Y-80504219D01*
X142589598Y-80504219D02*
X142684836Y-80504219D01*
X142684836Y-80504219D02*
X142732455Y-80528028D01*
X142970550Y-80837552D02*
X142970550Y-80337552D01*
X143184836Y-80837552D02*
X143184836Y-80575647D01*
X143184836Y-80575647D02*
X143161026Y-80528028D01*
X143161026Y-80528028D02*
X143113407Y-80504219D01*
X143113407Y-80504219D02*
X143041979Y-80504219D01*
X143041979Y-80504219D02*
X142994360Y-80528028D01*
X142994360Y-80528028D02*
X142970550Y-80551838D01*
X143351503Y-80504219D02*
X143541979Y-80504219D01*
X143422931Y-80337552D02*
X143422931Y-80766123D01*
X143422931Y-80766123D02*
X143446741Y-80813743D01*
X143446741Y-80813743D02*
X143494360Y-80837552D01*
X143494360Y-80837552D02*
X143541979Y-80837552D01*
X144494359Y-80456600D02*
X144446740Y-80432790D01*
X144446740Y-80432790D02*
X144351502Y-80432790D01*
X144351502Y-80432790D02*
X144303883Y-80456600D01*
X144303883Y-80456600D02*
X144256264Y-80504219D01*
X144256264Y-80504219D02*
X144232454Y-80551838D01*
X144232454Y-80551838D02*
X144232454Y-80647076D01*
X144232454Y-80647076D02*
X144256264Y-80694695D01*
X144256264Y-80694695D02*
X144303883Y-80742314D01*
X144303883Y-80742314D02*
X144351502Y-80766123D01*
X144351502Y-80766123D02*
X144446740Y-80766123D01*
X144446740Y-80766123D02*
X144494359Y-80742314D01*
X144399121Y-80266123D02*
X144280073Y-80289933D01*
X144280073Y-80289933D02*
X144161026Y-80361362D01*
X144161026Y-80361362D02*
X144089597Y-80480409D01*
X144089597Y-80480409D02*
X144065788Y-80599457D01*
X144065788Y-80599457D02*
X144089597Y-80718504D01*
X144089597Y-80718504D02*
X144161026Y-80837552D01*
X144161026Y-80837552D02*
X144280073Y-80908981D01*
X144280073Y-80908981D02*
X144399121Y-80932790D01*
X144399121Y-80932790D02*
X144518169Y-80908981D01*
X144518169Y-80908981D02*
X144637216Y-80837552D01*
X144637216Y-80837552D02*
X144708645Y-80718504D01*
X144708645Y-80718504D02*
X144732454Y-80599457D01*
X144732454Y-80599457D02*
X144708645Y-80480409D01*
X144708645Y-80480409D02*
X144637216Y-80361362D01*
X144637216Y-80361362D02*
X144518169Y-80289933D01*
X144518169Y-80289933D02*
X144399121Y-80266123D01*
X145303883Y-80385171D02*
X145327692Y-80361362D01*
X145327692Y-80361362D02*
X145375311Y-80337552D01*
X145375311Y-80337552D02*
X145494359Y-80337552D01*
X145494359Y-80337552D02*
X145541978Y-80361362D01*
X145541978Y-80361362D02*
X145565787Y-80385171D01*
X145565787Y-80385171D02*
X145589597Y-80432790D01*
X145589597Y-80432790D02*
X145589597Y-80480409D01*
X145589597Y-80480409D02*
X145565787Y-80551838D01*
X145565787Y-80551838D02*
X145280073Y-80837552D01*
X145280073Y-80837552D02*
X145589597Y-80837552D01*
X145899120Y-80337552D02*
X145946739Y-80337552D01*
X145946739Y-80337552D02*
X145994358Y-80361362D01*
X145994358Y-80361362D02*
X146018168Y-80385171D01*
X146018168Y-80385171D02*
X146041977Y-80432790D01*
X146041977Y-80432790D02*
X146065787Y-80528028D01*
X146065787Y-80528028D02*
X146065787Y-80647076D01*
X146065787Y-80647076D02*
X146041977Y-80742314D01*
X146041977Y-80742314D02*
X146018168Y-80789933D01*
X146018168Y-80789933D02*
X145994358Y-80813743D01*
X145994358Y-80813743D02*
X145946739Y-80837552D01*
X145946739Y-80837552D02*
X145899120Y-80837552D01*
X145899120Y-80837552D02*
X145851501Y-80813743D01*
X145851501Y-80813743D02*
X145827692Y-80789933D01*
X145827692Y-80789933D02*
X145803882Y-80742314D01*
X145803882Y-80742314D02*
X145780073Y-80647076D01*
X145780073Y-80647076D02*
X145780073Y-80528028D01*
X145780073Y-80528028D02*
X145803882Y-80432790D01*
X145803882Y-80432790D02*
X145827692Y-80385171D01*
X145827692Y-80385171D02*
X145851501Y-80361362D01*
X145851501Y-80361362D02*
X145899120Y-80337552D01*
X146256263Y-80385171D02*
X146280072Y-80361362D01*
X146280072Y-80361362D02*
X146327691Y-80337552D01*
X146327691Y-80337552D02*
X146446739Y-80337552D01*
X146446739Y-80337552D02*
X146494358Y-80361362D01*
X146494358Y-80361362D02*
X146518167Y-80385171D01*
X146518167Y-80385171D02*
X146541977Y-80432790D01*
X146541977Y-80432790D02*
X146541977Y-80480409D01*
X146541977Y-80480409D02*
X146518167Y-80551838D01*
X146518167Y-80551838D02*
X146232453Y-80837552D01*
X146232453Y-80837552D02*
X146541977Y-80837552D01*
X146994357Y-80337552D02*
X146756262Y-80337552D01*
X146756262Y-80337552D02*
X146732453Y-80575647D01*
X146732453Y-80575647D02*
X146756262Y-80551838D01*
X146756262Y-80551838D02*
X146803881Y-80528028D01*
X146803881Y-80528028D02*
X146922929Y-80528028D01*
X146922929Y-80528028D02*
X146970548Y-80551838D01*
X146970548Y-80551838D02*
X146994357Y-80575647D01*
X146994357Y-80575647D02*
X147018167Y-80623266D01*
X147018167Y-80623266D02*
X147018167Y-80742314D01*
X147018167Y-80742314D02*
X146994357Y-80789933D01*
X146994357Y-80789933D02*
X146970548Y-80813743D01*
X146970548Y-80813743D02*
X146922929Y-80837552D01*
X146922929Y-80837552D02*
X146803881Y-80837552D01*
X146803881Y-80837552D02*
X146756262Y-80813743D01*
X146756262Y-80813743D02*
X146732453Y-80789933D01*
X147613404Y-80837552D02*
X147613404Y-80337552D01*
X147613404Y-80337552D02*
X147780071Y-80694695D01*
X147780071Y-80694695D02*
X147946737Y-80337552D01*
X147946737Y-80337552D02*
X147946737Y-80837552D01*
X148184833Y-80837552D02*
X148184833Y-80504219D01*
X148184833Y-80337552D02*
X148161024Y-80361362D01*
X148161024Y-80361362D02*
X148184833Y-80385171D01*
X148184833Y-80385171D02*
X148208643Y-80361362D01*
X148208643Y-80361362D02*
X148184833Y-80337552D01*
X148184833Y-80337552D02*
X148184833Y-80385171D01*
X148494357Y-80837552D02*
X148446738Y-80813743D01*
X148446738Y-80813743D02*
X148422928Y-80766123D01*
X148422928Y-80766123D02*
X148422928Y-80337552D01*
X148875309Y-80813743D02*
X148827690Y-80837552D01*
X148827690Y-80837552D02*
X148732452Y-80837552D01*
X148732452Y-80837552D02*
X148684833Y-80813743D01*
X148684833Y-80813743D02*
X148661024Y-80766123D01*
X148661024Y-80766123D02*
X148661024Y-80575647D01*
X148661024Y-80575647D02*
X148684833Y-80528028D01*
X148684833Y-80528028D02*
X148732452Y-80504219D01*
X148732452Y-80504219D02*
X148827690Y-80504219D01*
X148827690Y-80504219D02*
X148875309Y-80528028D01*
X148875309Y-80528028D02*
X148899119Y-80575647D01*
X148899119Y-80575647D02*
X148899119Y-80623266D01*
X148899119Y-80623266D02*
X148661024Y-80670885D01*
X149089595Y-80813743D02*
X149137214Y-80837552D01*
X149137214Y-80837552D02*
X149232452Y-80837552D01*
X149232452Y-80837552D02*
X149280071Y-80813743D01*
X149280071Y-80813743D02*
X149303880Y-80766123D01*
X149303880Y-80766123D02*
X149303880Y-80742314D01*
X149303880Y-80742314D02*
X149280071Y-80694695D01*
X149280071Y-80694695D02*
X149232452Y-80670885D01*
X149232452Y-80670885D02*
X149161023Y-80670885D01*
X149161023Y-80670885D02*
X149113404Y-80647076D01*
X149113404Y-80647076D02*
X149089595Y-80599457D01*
X149089595Y-80599457D02*
X149089595Y-80575647D01*
X149089595Y-80575647D02*
X149113404Y-80528028D01*
X149113404Y-80528028D02*
X149161023Y-80504219D01*
X149161023Y-80504219D02*
X149232452Y-80504219D01*
X149232452Y-80504219D02*
X149280071Y-80528028D01*
X149803880Y-80789933D02*
X149780071Y-80813743D01*
X149780071Y-80813743D02*
X149708642Y-80837552D01*
X149708642Y-80837552D02*
X149661023Y-80837552D01*
X149661023Y-80837552D02*
X149589595Y-80813743D01*
X149589595Y-80813743D02*
X149541976Y-80766123D01*
X149541976Y-80766123D02*
X149518166Y-80718504D01*
X149518166Y-80718504D02*
X149494357Y-80623266D01*
X149494357Y-80623266D02*
X149494357Y-80551838D01*
X149494357Y-80551838D02*
X149518166Y-80456600D01*
X149518166Y-80456600D02*
X149541976Y-80408981D01*
X149541976Y-80408981D02*
X149589595Y-80361362D01*
X149589595Y-80361362D02*
X149661023Y-80337552D01*
X149661023Y-80337552D02*
X149708642Y-80337552D01*
X149708642Y-80337552D02*
X149780071Y-80361362D01*
X149780071Y-80361362D02*
X149803880Y-80385171D01*
X150089595Y-80837552D02*
X150041976Y-80813743D01*
X150041976Y-80813743D02*
X150018166Y-80789933D01*
X150018166Y-80789933D02*
X149994357Y-80742314D01*
X149994357Y-80742314D02*
X149994357Y-80599457D01*
X149994357Y-80599457D02*
X150018166Y-80551838D01*
X150018166Y-80551838D02*
X150041976Y-80528028D01*
X150041976Y-80528028D02*
X150089595Y-80504219D01*
X150089595Y-80504219D02*
X150161023Y-80504219D01*
X150161023Y-80504219D02*
X150208642Y-80528028D01*
X150208642Y-80528028D02*
X150232452Y-80551838D01*
X150232452Y-80551838D02*
X150256261Y-80599457D01*
X150256261Y-80599457D02*
X150256261Y-80742314D01*
X150256261Y-80742314D02*
X150232452Y-80789933D01*
X150232452Y-80789933D02*
X150208642Y-80813743D01*
X150208642Y-80813743D02*
X150161023Y-80837552D01*
X150161023Y-80837552D02*
X150089595Y-80837552D01*
X150470547Y-80837552D02*
X150470547Y-80337552D01*
X150470547Y-80337552D02*
X150637214Y-80694695D01*
X150637214Y-80694695D02*
X150803880Y-80337552D01*
X150803880Y-80337552D02*
X150803880Y-80837552D01*
X151232452Y-80813743D02*
X151184833Y-80837552D01*
X151184833Y-80837552D02*
X151089595Y-80837552D01*
X151089595Y-80837552D02*
X151041976Y-80813743D01*
X151041976Y-80813743D02*
X151018167Y-80766123D01*
X151018167Y-80766123D02*
X151018167Y-80575647D01*
X151018167Y-80575647D02*
X151041976Y-80528028D01*
X151041976Y-80528028D02*
X151089595Y-80504219D01*
X151089595Y-80504219D02*
X151184833Y-80504219D01*
X151184833Y-80504219D02*
X151232452Y-80528028D01*
X151232452Y-80528028D02*
X151256262Y-80575647D01*
X151256262Y-80575647D02*
X151256262Y-80623266D01*
X151256262Y-80623266D02*
X151018167Y-80670885D01*
X151684833Y-80837552D02*
X151684833Y-80337552D01*
X151684833Y-80813743D02*
X151637214Y-80837552D01*
X151637214Y-80837552D02*
X151541976Y-80837552D01*
X151541976Y-80837552D02*
X151494357Y-80813743D01*
X151494357Y-80813743D02*
X151470547Y-80789933D01*
X151470547Y-80789933D02*
X151446738Y-80742314D01*
X151446738Y-80742314D02*
X151446738Y-80599457D01*
X151446738Y-80599457D02*
X151470547Y-80551838D01*
X151470547Y-80551838D02*
X151494357Y-80528028D01*
X151494357Y-80528028D02*
X151541976Y-80504219D01*
X151541976Y-80504219D02*
X151637214Y-80504219D01*
X151637214Y-80504219D02*
X151684833Y-80528028D01*
X151922928Y-80837552D02*
X151922928Y-80504219D01*
X151922928Y-80337552D02*
X151899119Y-80361362D01*
X151899119Y-80361362D02*
X151922928Y-80385171D01*
X151922928Y-80385171D02*
X151946738Y-80361362D01*
X151946738Y-80361362D02*
X151922928Y-80337552D01*
X151922928Y-80337552D02*
X151922928Y-80385171D01*
X152375309Y-80837552D02*
X152375309Y-80575647D01*
X152375309Y-80575647D02*
X152351499Y-80528028D01*
X152351499Y-80528028D02*
X152303880Y-80504219D01*
X152303880Y-80504219D02*
X152208642Y-80504219D01*
X152208642Y-80504219D02*
X152161023Y-80528028D01*
X152375309Y-80813743D02*
X152327690Y-80837552D01*
X152327690Y-80837552D02*
X152208642Y-80837552D01*
X152208642Y-80837552D02*
X152161023Y-80813743D01*
X152161023Y-80813743D02*
X152137214Y-80766123D01*
X152137214Y-80766123D02*
X152137214Y-80718504D01*
X152137214Y-80718504D02*
X152161023Y-80670885D01*
X152161023Y-80670885D02*
X152208642Y-80647076D01*
X152208642Y-80647076D02*
X152327690Y-80647076D01*
X152327690Y-80647076D02*
X152375309Y-80623266D01*
X150684836Y-78837552D02*
X150684836Y-78337552D01*
X150684836Y-78337552D02*
X150851503Y-78694695D01*
X150851503Y-78694695D02*
X151018169Y-78337552D01*
X151018169Y-78337552D02*
X151018169Y-78837552D01*
X151256265Y-78837552D02*
X151256265Y-78337552D01*
X151541979Y-78837552D02*
X151327694Y-78551838D01*
X151541979Y-78337552D02*
X151256265Y-78623266D01*
X151756265Y-78789933D02*
X151780075Y-78813743D01*
X151780075Y-78813743D02*
X151756265Y-78837552D01*
X151756265Y-78837552D02*
X151732456Y-78813743D01*
X151732456Y-78813743D02*
X151756265Y-78789933D01*
X151756265Y-78789933D02*
X151756265Y-78837552D01*
X152637217Y-78837552D02*
X152351503Y-78837552D01*
X152494360Y-78837552D02*
X152494360Y-78337552D01*
X152494360Y-78337552D02*
X152446741Y-78408981D01*
X152446741Y-78408981D02*
X152399122Y-78456600D01*
X152399122Y-78456600D02*
X152351503Y-78480409D01*
X153351502Y-79004219D02*
X153351502Y-78289933D01*
X154041977Y-78504219D02*
X154161025Y-78837552D01*
X154161025Y-78837552D02*
X154280072Y-78504219D01*
X154732453Y-78837552D02*
X154446739Y-78837552D01*
X154589596Y-78837552D02*
X154589596Y-78337552D01*
X154589596Y-78337552D02*
X154541977Y-78408981D01*
X154541977Y-78408981D02*
X154494358Y-78456600D01*
X154494358Y-78456600D02*
X154446739Y-78480409D01*
X154946738Y-78789933D02*
X154970548Y-78813743D01*
X154970548Y-78813743D02*
X154946738Y-78837552D01*
X154946738Y-78837552D02*
X154922929Y-78813743D01*
X154922929Y-78813743D02*
X154946738Y-78789933D01*
X154946738Y-78789933D02*
X154946738Y-78837552D01*
X155280071Y-78337552D02*
X155327690Y-78337552D01*
X155327690Y-78337552D02*
X155375309Y-78361362D01*
X155375309Y-78361362D02*
X155399119Y-78385171D01*
X155399119Y-78385171D02*
X155422928Y-78432790D01*
X155422928Y-78432790D02*
X155446738Y-78528028D01*
X155446738Y-78528028D02*
X155446738Y-78647076D01*
X155446738Y-78647076D02*
X155422928Y-78742314D01*
X155422928Y-78742314D02*
X155399119Y-78789933D01*
X155399119Y-78789933D02*
X155375309Y-78813743D01*
X155375309Y-78813743D02*
X155327690Y-78837552D01*
X155327690Y-78837552D02*
X155280071Y-78837552D01*
X155280071Y-78837552D02*
X155232452Y-78813743D01*
X155232452Y-78813743D02*
X155208643Y-78789933D01*
X155208643Y-78789933D02*
X155184833Y-78742314D01*
X155184833Y-78742314D02*
X155161024Y-78647076D01*
X155161024Y-78647076D02*
X155161024Y-78528028D01*
X155161024Y-78528028D02*
X155184833Y-78432790D01*
X155184833Y-78432790D02*
X155208643Y-78385171D01*
X155208643Y-78385171D02*
X155232452Y-78361362D01*
X155232452Y-78361362D02*
X155280071Y-78337552D01*
D13*
X120989819Y-86858333D02*
X121704104Y-86858333D01*
X121704104Y-86858333D02*
X121846961Y-86905952D01*
X121846961Y-86905952D02*
X121942200Y-87001190D01*
X121942200Y-87001190D02*
X121989819Y-87144047D01*
X121989819Y-87144047D02*
X121989819Y-87239285D01*
X121323152Y-85953571D02*
X121989819Y-85953571D01*
X120942200Y-86191666D02*
X121656485Y-86429761D01*
X121656485Y-86429761D02*
X121656485Y-85810714D01*
X126989819Y-94858333D02*
X127704104Y-94858333D01*
X127704104Y-94858333D02*
X127846961Y-94905952D01*
X127846961Y-94905952D02*
X127942200Y-95001190D01*
X127942200Y-95001190D02*
X127989819Y-95144047D01*
X127989819Y-95144047D02*
X127989819Y-95239285D01*
X126989819Y-94477380D02*
X126989819Y-93858333D01*
X126989819Y-93858333D02*
X127370771Y-94191666D01*
X127370771Y-94191666D02*
X127370771Y-94048809D01*
X127370771Y-94048809D02*
X127418390Y-93953571D01*
X127418390Y-93953571D02*
X127466009Y-93905952D01*
X127466009Y-93905952D02*
X127561247Y-93858333D01*
X127561247Y-93858333D02*
X127799342Y-93858333D01*
X127799342Y-93858333D02*
X127894580Y-93905952D01*
X127894580Y-93905952D02*
X127942200Y-93953571D01*
X127942200Y-93953571D02*
X127989819Y-94048809D01*
X127989819Y-94048809D02*
X127989819Y-94334523D01*
X127989819Y-94334523D02*
X127942200Y-94429761D01*
X127942200Y-94429761D02*
X127894580Y-94477380D01*
X108854775Y-91922653D02*
X108946520Y-91953234D01*
X108946520Y-91953234D02*
X109099428Y-91953234D01*
X109099428Y-91953234D02*
X109160591Y-91922653D01*
X109160591Y-91922653D02*
X109191173Y-91892071D01*
X109191173Y-91892071D02*
X109221754Y-91830908D01*
X109221754Y-91830908D02*
X109221754Y-91769744D01*
X109221754Y-91769744D02*
X109191173Y-91708581D01*
X109191173Y-91708581D02*
X109160591Y-91678000D01*
X109160591Y-91678000D02*
X109099428Y-91647418D01*
X109099428Y-91647418D02*
X108977101Y-91616836D01*
X108977101Y-91616836D02*
X108915938Y-91586255D01*
X108915938Y-91586255D02*
X108885357Y-91555673D01*
X108885357Y-91555673D02*
X108854775Y-91494510D01*
X108854775Y-91494510D02*
X108854775Y-91433347D01*
X108854775Y-91433347D02*
X108885357Y-91372183D01*
X108885357Y-91372183D02*
X108915938Y-91341602D01*
X108915938Y-91341602D02*
X108977101Y-91311020D01*
X108977101Y-91311020D02*
X109130010Y-91311020D01*
X109130010Y-91311020D02*
X109221754Y-91341602D01*
X109435825Y-91311020D02*
X109588733Y-91953234D01*
X109588733Y-91953234D02*
X109711060Y-91494510D01*
X109711060Y-91494510D02*
X109833386Y-91953234D01*
X109833386Y-91953234D02*
X109986295Y-91311020D01*
X110567345Y-91953234D02*
X110200366Y-91953234D01*
X110383856Y-91953234D02*
X110383856Y-91311020D01*
X110383856Y-91311020D02*
X110322692Y-91402765D01*
X110322692Y-91402765D02*
X110261529Y-91463928D01*
X110261529Y-91463928D02*
X110200366Y-91494510D01*
X106032142Y-78319819D02*
X105555952Y-78319819D01*
X105555952Y-78319819D02*
X105555952Y-77319819D01*
X106317857Y-78272200D02*
X106460714Y-78319819D01*
X106460714Y-78319819D02*
X106698809Y-78319819D01*
X106698809Y-78319819D02*
X106794047Y-78272200D01*
X106794047Y-78272200D02*
X106841666Y-78224580D01*
X106841666Y-78224580D02*
X106889285Y-78129342D01*
X106889285Y-78129342D02*
X106889285Y-78034104D01*
X106889285Y-78034104D02*
X106841666Y-77938866D01*
X106841666Y-77938866D02*
X106794047Y-77891247D01*
X106794047Y-77891247D02*
X106698809Y-77843628D01*
X106698809Y-77843628D02*
X106508333Y-77796009D01*
X106508333Y-77796009D02*
X106413095Y-77748390D01*
X106413095Y-77748390D02*
X106365476Y-77700771D01*
X106365476Y-77700771D02*
X106317857Y-77605533D01*
X106317857Y-77605533D02*
X106317857Y-77510295D01*
X106317857Y-77510295D02*
X106365476Y-77415057D01*
X106365476Y-77415057D02*
X106413095Y-77367438D01*
X106413095Y-77367438D02*
X106508333Y-77319819D01*
X106508333Y-77319819D02*
X106746428Y-77319819D01*
X106746428Y-77319819D02*
X106889285Y-77367438D01*
X107841666Y-78319819D02*
X107270238Y-78319819D01*
X107555952Y-78319819D02*
X107555952Y-77319819D01*
X107555952Y-77319819D02*
X107460714Y-77462676D01*
X107460714Y-77462676D02*
X107365476Y-77557914D01*
X107365476Y-77557914D02*
X107270238Y-77605533D01*
X102119048Y-80303866D02*
X102880953Y-80303866D01*
X102500000Y-80684819D02*
X102500000Y-79922914D01*
X102119048Y-91563866D02*
X102880953Y-91563866D01*
D14*
X161747822Y-92017822D02*
X158227029Y-92017822D01*
X158227029Y-91150198D01*
X161747822Y-91150198D01*
X161747822Y-92017822D01*
G36*
X161747822Y-92017822D02*
G01*
X158227029Y-92017822D01*
X158227029Y-91150198D01*
X161747822Y-91150198D01*
X161747822Y-92017822D01*
G37*
X162124430Y-86064848D02*
X162123811Y-86151931D01*
X161672086Y-86610891D01*
X161220361Y-87069852D01*
X161220032Y-87280471D01*
X161219703Y-87491089D01*
X160944610Y-87491089D01*
X160937522Y-87544530D01*
X160934838Y-87568888D01*
X160930313Y-87614759D01*
X160924191Y-87679405D01*
X160916712Y-87760091D01*
X160908119Y-87854081D01*
X160898654Y-87958637D01*
X160888558Y-88071025D01*
X160878074Y-88188507D01*
X160867444Y-88308348D01*
X160856909Y-88427811D01*
X160846713Y-88544159D01*
X160837095Y-88654657D01*
X160828300Y-88756569D01*
X160820568Y-88847158D01*
X160814142Y-88923687D01*
X160809263Y-88983421D01*
X160806175Y-89023624D01*
X160805117Y-89041559D01*
X160805118Y-89041644D01*
X160812827Y-89056035D01*
X160835981Y-89085748D01*
X160874895Y-89131131D01*
X160929884Y-89192529D01*
X161001264Y-89270288D01*
X161089349Y-89364754D01*
X161194454Y-89476272D01*
X161316895Y-89605188D01*
X161351310Y-89641287D01*
X161897137Y-90213416D01*
X161808881Y-90301436D01*
X161737485Y-90223758D01*
X161711366Y-90195686D01*
X161670566Y-90152274D01*
X161617777Y-90096366D01*
X161555691Y-90030808D01*
X161487000Y-89958441D01*
X161414396Y-89882112D01*
X161370960Y-89836524D01*
X161289416Y-89751119D01*
X161223504Y-89682710D01*
X161171544Y-89630053D01*
X161131855Y-89591905D01*
X161102757Y-89567020D01*
X161082569Y-89554156D01*
X161069610Y-89552068D01*
X161062200Y-89559513D01*
X161058658Y-89575246D01*
X161057303Y-89598023D01*
X161057121Y-89604239D01*
X161047703Y-89647061D01*
X161024497Y-89698819D01*
X160992136Y-89751328D01*
X160955252Y-89796403D01*
X160940493Y-89810328D01*
X160864767Y-89859047D01*
X160776308Y-89886306D01*
X160698100Y-89892773D01*
X160609468Y-89880576D01*
X160527612Y-89844813D01*
X160455164Y-89786722D01*
X160441797Y-89772262D01*
X160392918Y-89716733D01*
X159547326Y-89716733D01*
X159547326Y-89892773D01*
X159320990Y-89892773D01*
X159320990Y-89810531D01*
X159318150Y-89754386D01*
X159308607Y-89715416D01*
X159297009Y-89694219D01*
X159288723Y-89679052D01*
X159281627Y-89657062D01*
X159275252Y-89624987D01*
X159269128Y-89579569D01*
X159262784Y-89517548D01*
X159255750Y-89435662D01*
X159250934Y-89374746D01*
X159228839Y-89089343D01*
X158686435Y-89638805D01*
X158588363Y-89738228D01*
X158494216Y-89833815D01*
X158405715Y-89923810D01*
X158324580Y-90006457D01*
X158252531Y-90080001D01*
X158191288Y-90142684D01*
X158142573Y-90192752D01*
X158108104Y-90228448D01*
X158089621Y-90247995D01*
X158059257Y-90278944D01*
X158033929Y-90300530D01*
X158020305Y-90307723D01*
X158002905Y-90299297D01*
X157977540Y-90278245D01*
X157968942Y-90269671D01*
X157932486Y-90231620D01*
X158133198Y-90027658D01*
X158184404Y-89975699D01*
X158250431Y-89908820D01*
X158328382Y-89829950D01*
X158415362Y-89742014D01*
X158508474Y-89647941D01*
X158604821Y-89550658D01*
X158701508Y-89453093D01*
X158770866Y-89383145D01*
X158876297Y-89276550D01*
X158964871Y-89186307D01*
X159037719Y-89111192D01*
X159095977Y-89049986D01*
X159140775Y-89001466D01*
X159162979Y-88976129D01*
X159341276Y-88976129D01*
X159363599Y-89261555D01*
X159370331Y-89345219D01*
X159376843Y-89421727D01*
X159382766Y-89487081D01*
X159387732Y-89537281D01*
X159391371Y-89568329D01*
X159392542Y-89575273D01*
X159399162Y-89603565D01*
X160348636Y-89603565D01*
X160354974Y-89524606D01*
X160374110Y-89431315D01*
X160414154Y-89348791D01*
X160472582Y-89280038D01*
X160546871Y-89228063D01*
X160630252Y-89196863D01*
X160657302Y-89182228D01*
X160670844Y-89150819D01*
X160671128Y-89149434D01*
X160672753Y-89136174D01*
X160670744Y-89122595D01*
X160663142Y-89106181D01*
X160647984Y-89084411D01*
X160623312Y-89054767D01*
X160587164Y-89014732D01*
X160537580Y-88961785D01*
X160472599Y-88893409D01*
X160468401Y-88889005D01*
X160398507Y-88815611D01*
X160324200Y-88737437D01*
X160250586Y-88659864D01*
X160182771Y-88588275D01*
X160125860Y-88528051D01*
X160113168Y-88514587D01*
X160064513Y-88463820D01*
X160021291Y-88420375D01*
X159986605Y-88387241D01*
X159963556Y-88367405D01*
X159955818Y-88363046D01*
X159944278Y-88372170D01*
X159917290Y-88397200D01*
X159876979Y-88436052D01*
X159825471Y-88486643D01*
X159764891Y-88546888D01*
X159697364Y-88614704D01*
X159642174Y-88670565D01*
X159341276Y-88976129D01*
X159162979Y-88976129D01*
X159173249Y-88964411D01*
X159194529Y-88937599D01*
X159205749Y-88919808D01*
X159208246Y-88911570D01*
X159207300Y-88893590D01*
X159204427Y-88852892D01*
X159199813Y-88791819D01*
X159193642Y-88712713D01*
X159186102Y-88617914D01*
X159177379Y-88509767D01*
X159167657Y-88390612D01*
X159157124Y-88262791D01*
X159148635Y-88160635D01*
X159100604Y-87584674D01*
X159224195Y-87584674D01*
X159224727Y-87597104D01*
X159227231Y-87632110D01*
X159231504Y-87687215D01*
X159237347Y-87759943D01*
X159244557Y-87847814D01*
X159252934Y-87948351D01*
X159262277Y-88059077D01*
X159271242Y-88164205D01*
X159281398Y-88283483D01*
X159290858Y-88396080D01*
X159299404Y-88499305D01*
X159306821Y-88590473D01*
X159312892Y-88666895D01*
X159317399Y-88725883D01*
X159320127Y-88764749D01*
X159320884Y-88779844D01*
X159322065Y-88789238D01*
X159326744Y-88792966D01*
X159336724Y-88789471D01*
X159353810Y-88777199D01*
X159379804Y-88754594D01*
X159416510Y-88720100D01*
X159465733Y-88672162D01*
X159529274Y-88609224D01*
X159596695Y-88541968D01*
X159872399Y-88266477D01*
X159870467Y-88264406D01*
X160052710Y-88264406D01*
X160061016Y-88275780D01*
X160084267Y-88302563D01*
X160120135Y-88342292D01*
X160166287Y-88392507D01*
X160220394Y-88450746D01*
X160280126Y-88514547D01*
X160343152Y-88581449D01*
X160407142Y-88648990D01*
X160469764Y-88714710D01*
X160528690Y-88776146D01*
X160581588Y-88830837D01*
X160626128Y-88876322D01*
X160659980Y-88910138D01*
X160680812Y-88929826D01*
X160686494Y-88933837D01*
X160688366Y-88920891D01*
X160692254Y-88885134D01*
X160697943Y-88828804D01*
X160705219Y-88754140D01*
X160713869Y-88663380D01*
X160723678Y-88558762D01*
X160734434Y-88442526D01*
X160745921Y-88316908D01*
X160755093Y-88215618D01*
X160766826Y-88084279D01*
X160777665Y-87960552D01*
X160787430Y-87846681D01*
X160795937Y-87744911D01*
X160803005Y-87657487D01*
X160808451Y-87586653D01*
X160812092Y-87534653D01*
X160813747Y-87503732D01*
X160813558Y-87495703D01*
X160803666Y-87502854D01*
X160778476Y-87525841D01*
X160740190Y-87562439D01*
X160691011Y-87610422D01*
X160633139Y-87667566D01*
X160568778Y-87731647D01*
X160500129Y-87800438D01*
X160429395Y-87871716D01*
X160358778Y-87943255D01*
X160290480Y-88012830D01*
X160226704Y-88078217D01*
X160169650Y-88137191D01*
X160121522Y-88187527D01*
X160084522Y-88226999D01*
X160060852Y-88253383D01*
X160052710Y-88264406D01*
X159870467Y-88264406D01*
X159769591Y-88156295D01*
X159717232Y-88100377D01*
X159658465Y-88037948D01*
X159595615Y-87971443D01*
X159531005Y-87903298D01*
X159466958Y-87835948D01*
X159405797Y-87771828D01*
X159349847Y-87713372D01*
X159301430Y-87663018D01*
X159262870Y-87623198D01*
X159236491Y-87596350D01*
X159224616Y-87584908D01*
X159224195Y-87584674D01*
X159100604Y-87584674D01*
X159088599Y-87440726D01*
X158488062Y-86809158D01*
X157887525Y-86177589D01*
X157887966Y-86089315D01*
X157888408Y-86001040D01*
X157985417Y-86104666D01*
X158039709Y-86162463D01*
X158103808Y-86230368D01*
X158175984Y-86306572D01*
X158254508Y-86389269D01*
X158337651Y-86476653D01*
X158423681Y-86566915D01*
X158510870Y-86658250D01*
X158597487Y-86748849D01*
X158681803Y-86836907D01*
X158762088Y-86920615D01*
X158836613Y-86998167D01*
X158903646Y-87067757D01*
X158961459Y-87127576D01*
X159008321Y-87175818D01*
X159042504Y-87210676D01*
X159062276Y-87230343D01*
X159066610Y-87234116D01*
X159066908Y-87220992D01*
X159065269Y-87187389D01*
X159061977Y-87137880D01*
X159057318Y-87077037D01*
X159055318Y-87052732D01*
X159040423Y-86874951D01*
X159157045Y-86874951D01*
X159163066Y-86903243D01*
X159166137Y-86925618D01*
X159170452Y-86967717D01*
X159175512Y-87024178D01*
X159180819Y-87089635D01*
X159182656Y-87113862D01*
X159188073Y-87183421D01*
X159193541Y-87248018D01*
X159198512Y-87301548D01*
X159202439Y-87337910D01*
X159203325Y-87344509D01*
X159206666Y-87358056D01*
X159213899Y-87373914D01*
X159226560Y-87393861D01*
X159246189Y-87419673D01*
X159274322Y-87453129D01*
X159312498Y-87496007D01*
X159362254Y-87550083D01*
X159425129Y-87617136D01*
X159502659Y-87698943D01*
X159581749Y-87781950D01*
X159660436Y-87864094D01*
X159733888Y-87940169D01*
X159800276Y-88008325D01*
X159857773Y-88066712D01*
X159904549Y-88113481D01*
X159938776Y-88146782D01*
X159958627Y-88164767D01*
X159962860Y-88167442D01*
X159973997Y-88157741D01*
X160000029Y-88132441D01*
X160038430Y-88094082D01*
X160086672Y-88045200D01*
X160142230Y-87988334D01*
X160182408Y-87946906D01*
X160392169Y-87730000D01*
X159773663Y-87730000D01*
X159773663Y-87491089D01*
X160528119Y-87491089D01*
X160528119Y-87597542D01*
X160666435Y-87459654D01*
X160764553Y-87361840D01*
X160955643Y-87361840D01*
X160957471Y-87377270D01*
X160966723Y-87385867D01*
X160989050Y-87389613D01*
X161030105Y-87390489D01*
X161037376Y-87390495D01*
X161119109Y-87390495D01*
X161119109Y-87171172D01*
X161037376Y-87252179D01*
X160991270Y-87301428D01*
X160963694Y-87339159D01*
X160955643Y-87361840D01*
X160764553Y-87361840D01*
X160804752Y-87321766D01*
X160804752Y-87198952D01*
X160805137Y-87142450D01*
X160806900Y-87106505D01*
X160810950Y-87086530D01*
X160818199Y-87077937D01*
X160829130Y-87076139D01*
X160841288Y-87073498D01*
X160850273Y-87062912D01*
X160857174Y-87040381D01*
X160863076Y-87001909D01*
X160869065Y-86943498D01*
X160870987Y-86922104D01*
X160875148Y-86874951D01*
X159157045Y-86874951D01*
X159040423Y-86874951D01*
X158880891Y-86874951D01*
X158880891Y-86761782D01*
X158948686Y-86761782D01*
X158988338Y-86760696D01*
X159009884Y-86755454D01*
X159012520Y-86752334D01*
X159151384Y-86752334D01*
X159158692Y-86759462D01*
X159184007Y-86761662D01*
X159201092Y-86761782D01*
X159258119Y-86761782D01*
X159470779Y-86761782D01*
X160885302Y-86761782D01*
X160837458Y-86712786D01*
X160763150Y-86652324D01*
X160671184Y-86605691D01*
X160560002Y-86572249D01*
X160449529Y-86553753D01*
X160377227Y-86545122D01*
X160377227Y-86636040D01*
X159798812Y-86636040D01*
X159798812Y-86535446D01*
X159899406Y-86535446D01*
X160276633Y-86535446D01*
X160276633Y-86472575D01*
X159899406Y-86472575D01*
X159899406Y-86535446D01*
X159798812Y-86535446D01*
X159798812Y-86532893D01*
X159713935Y-86541496D01*
X159654632Y-86548756D01*
X159591449Y-86558379D01*
X159553614Y-86565252D01*
X159478168Y-86580407D01*
X159474474Y-86671095D01*
X159470779Y-86761782D01*
X159258119Y-86761782D01*
X159258119Y-86711485D01*
X159256456Y-86679976D01*
X159252303Y-86662463D01*
X159250629Y-86661188D01*
X159232013Y-86669254D01*
X159204817Y-86688820D01*
X159177552Y-86712944D01*
X159158733Y-86734682D01*
X159157057Y-86737508D01*
X159151384Y-86752334D01*
X159012520Y-86752334D01*
X159020338Y-86743081D01*
X159024558Y-86729604D01*
X159041781Y-86694627D01*
X159074862Y-86652579D01*
X159118107Y-86609356D01*
X159165826Y-86570854D01*
X159197170Y-86550801D01*
X159232877Y-86528851D01*
X159251181Y-86510411D01*
X159257612Y-86488668D01*
X159258106Y-86475718D01*
X159258106Y-86472575D01*
X159258119Y-86434852D01*
X159363952Y-86434852D01*
X159412645Y-86436029D01*
X159450595Y-86439165D01*
X159471692Y-86443671D01*
X159473977Y-86445495D01*
X159487359Y-86448295D01*
X159519926Y-86447148D01*
X159566084Y-86442393D01*
X159597624Y-86438003D01*
X159654812Y-86429378D01*
X159707114Y-86421591D01*
X159746418Y-86415847D01*
X159757945Y-86414215D01*
X159788063Y-86404888D01*
X159798812Y-86390272D01*
X159802080Y-86384320D01*
X159813770Y-86379778D01*
X159836712Y-86376470D01*
X159873735Y-86374215D01*
X159927668Y-86372834D01*
X160001340Y-86372150D01*
X160088020Y-86371980D01*
X160180529Y-86372077D01*
X160250906Y-86372530D01*
X160302164Y-86373590D01*
X160337320Y-86375503D01*
X160359389Y-86378519D01*
X160371385Y-86382885D01*
X160376324Y-86388849D01*
X160377227Y-86395784D01*
X160384921Y-86417795D01*
X160410121Y-86430321D01*
X160456009Y-86434788D01*
X160464264Y-86434852D01*
X160541973Y-86442868D01*
X160630233Y-86464936D01*
X160721085Y-86498084D01*
X160806570Y-86539339D01*
X160878726Y-86585731D01*
X160888072Y-86593082D01*
X160918533Y-86616998D01*
X160936572Y-86626576D01*
X160949169Y-86623480D01*
X160962100Y-86610704D01*
X161000293Y-86585678D01*
X161049998Y-86576071D01*
X161103524Y-86581067D01*
X161153178Y-86599851D01*
X161191267Y-86631606D01*
X161194025Y-86635297D01*
X161222526Y-86694575D01*
X161227828Y-86755934D01*
X161210518Y-86814427D01*
X161171180Y-86865104D01*
X161166370Y-86869289D01*
X161138440Y-86889167D01*
X161110102Y-86897921D01*
X161070263Y-86898553D01*
X161060311Y-86897992D01*
X161021332Y-86896562D01*
X161001254Y-86899839D01*
X160993985Y-86909728D01*
X160993240Y-86918961D01*
X160991716Y-86945744D01*
X160987935Y-86986025D01*
X160985218Y-87010124D01*
X160981277Y-87048401D01*
X160982916Y-87067996D01*
X160992421Y-87075158D01*
X161009351Y-87076139D01*
X161019392Y-87072901D01*
X161035590Y-87062420D01*
X161059145Y-87043548D01*
X161091257Y-87015135D01*
X161133128Y-86976035D01*
X161185957Y-86925097D01*
X161250945Y-86861173D01*
X161329291Y-86783114D01*
X161422197Y-86689772D01*
X161530863Y-86579998D01*
X161583231Y-86526952D01*
X162125049Y-85977767D01*
X162124430Y-86064848D01*
G36*
X162124430Y-86064848D02*
G01*
X162123811Y-86151931D01*
X161672086Y-86610891D01*
X161220361Y-87069852D01*
X161220032Y-87280471D01*
X161219703Y-87491089D01*
X160944610Y-87491089D01*
X160937522Y-87544530D01*
X160934838Y-87568888D01*
X160930313Y-87614759D01*
X160924191Y-87679405D01*
X160916712Y-87760091D01*
X160908119Y-87854081D01*
X160898654Y-87958637D01*
X160888558Y-88071025D01*
X160878074Y-88188507D01*
X160867444Y-88308348D01*
X160856909Y-88427811D01*
X160846713Y-88544159D01*
X160837095Y-88654657D01*
X160828300Y-88756569D01*
X160820568Y-88847158D01*
X160814142Y-88923687D01*
X160809263Y-88983421D01*
X160806175Y-89023624D01*
X160805117Y-89041559D01*
X160805118Y-89041644D01*
X160812827Y-89056035D01*
X160835981Y-89085748D01*
X160874895Y-89131131D01*
X160929884Y-89192529D01*
X161001264Y-89270288D01*
X161089349Y-89364754D01*
X161194454Y-89476272D01*
X161316895Y-89605188D01*
X161351310Y-89641287D01*
X161897137Y-90213416D01*
X161808881Y-90301436D01*
X161737485Y-90223758D01*
X161711366Y-90195686D01*
X161670566Y-90152274D01*
X161617777Y-90096366D01*
X161555691Y-90030808D01*
X161487000Y-89958441D01*
X161414396Y-89882112D01*
X161370960Y-89836524D01*
X161289416Y-89751119D01*
X161223504Y-89682710D01*
X161171544Y-89630053D01*
X161131855Y-89591905D01*
X161102757Y-89567020D01*
X161082569Y-89554156D01*
X161069610Y-89552068D01*
X161062200Y-89559513D01*
X161058658Y-89575246D01*
X161057303Y-89598023D01*
X161057121Y-89604239D01*
X161047703Y-89647061D01*
X161024497Y-89698819D01*
X160992136Y-89751328D01*
X160955252Y-89796403D01*
X160940493Y-89810328D01*
X160864767Y-89859047D01*
X160776308Y-89886306D01*
X160698100Y-89892773D01*
X160609468Y-89880576D01*
X160527612Y-89844813D01*
X160455164Y-89786722D01*
X160441797Y-89772262D01*
X160392918Y-89716733D01*
X159547326Y-89716733D01*
X159547326Y-89892773D01*
X159320990Y-89892773D01*
X159320990Y-89810531D01*
X159318150Y-89754386D01*
X159308607Y-89715416D01*
X159297009Y-89694219D01*
X159288723Y-89679052D01*
X159281627Y-89657062D01*
X159275252Y-89624987D01*
X159269128Y-89579569D01*
X159262784Y-89517548D01*
X159255750Y-89435662D01*
X159250934Y-89374746D01*
X159228839Y-89089343D01*
X158686435Y-89638805D01*
X158588363Y-89738228D01*
X158494216Y-89833815D01*
X158405715Y-89923810D01*
X158324580Y-90006457D01*
X158252531Y-90080001D01*
X158191288Y-90142684D01*
X158142573Y-90192752D01*
X158108104Y-90228448D01*
X158089621Y-90247995D01*
X158059257Y-90278944D01*
X158033929Y-90300530D01*
X158020305Y-90307723D01*
X158002905Y-90299297D01*
X157977540Y-90278245D01*
X157968942Y-90269671D01*
X157932486Y-90231620D01*
X158133198Y-90027658D01*
X158184404Y-89975699D01*
X158250431Y-89908820D01*
X158328382Y-89829950D01*
X158415362Y-89742014D01*
X158508474Y-89647941D01*
X158604821Y-89550658D01*
X158701508Y-89453093D01*
X158770866Y-89383145D01*
X158876297Y-89276550D01*
X158964871Y-89186307D01*
X159037719Y-89111192D01*
X159095977Y-89049986D01*
X159140775Y-89001466D01*
X159162979Y-88976129D01*
X159341276Y-88976129D01*
X159363599Y-89261555D01*
X159370331Y-89345219D01*
X159376843Y-89421727D01*
X159382766Y-89487081D01*
X159387732Y-89537281D01*
X159391371Y-89568329D01*
X159392542Y-89575273D01*
X159399162Y-89603565D01*
X160348636Y-89603565D01*
X160354974Y-89524606D01*
X160374110Y-89431315D01*
X160414154Y-89348791D01*
X160472582Y-89280038D01*
X160546871Y-89228063D01*
X160630252Y-89196863D01*
X160657302Y-89182228D01*
X160670844Y-89150819D01*
X160671128Y-89149434D01*
X160672753Y-89136174D01*
X160670744Y-89122595D01*
X160663142Y-89106181D01*
X160647984Y-89084411D01*
X160623312Y-89054767D01*
X160587164Y-89014732D01*
X160537580Y-88961785D01*
X160472599Y-88893409D01*
X160468401Y-88889005D01*
X160398507Y-88815611D01*
X160324200Y-88737437D01*
X160250586Y-88659864D01*
X160182771Y-88588275D01*
X160125860Y-88528051D01*
X160113168Y-88514587D01*
X160064513Y-88463820D01*
X160021291Y-88420375D01*
X159986605Y-88387241D01*
X159963556Y-88367405D01*
X159955818Y-88363046D01*
X159944278Y-88372170D01*
X159917290Y-88397200D01*
X159876979Y-88436052D01*
X159825471Y-88486643D01*
X159764891Y-88546888D01*
X159697364Y-88614704D01*
X159642174Y-88670565D01*
X159341276Y-88976129D01*
X159162979Y-88976129D01*
X159173249Y-88964411D01*
X159194529Y-88937599D01*
X159205749Y-88919808D01*
X159208246Y-88911570D01*
X159207300Y-88893590D01*
X159204427Y-88852892D01*
X159199813Y-88791819D01*
X159193642Y-88712713D01*
X159186102Y-88617914D01*
X159177379Y-88509767D01*
X159167657Y-88390612D01*
X159157124Y-88262791D01*
X159148635Y-88160635D01*
X159100604Y-87584674D01*
X159224195Y-87584674D01*
X159224727Y-87597104D01*
X159227231Y-87632110D01*
X159231504Y-87687215D01*
X159237347Y-87759943D01*
X159244557Y-87847814D01*
X159252934Y-87948351D01*
X159262277Y-88059077D01*
X159271242Y-88164205D01*
X159281398Y-88283483D01*
X159290858Y-88396080D01*
X159299404Y-88499305D01*
X159306821Y-88590473D01*
X159312892Y-88666895D01*
X159317399Y-88725883D01*
X159320127Y-88764749D01*
X159320884Y-88779844D01*
X159322065Y-88789238D01*
X159326744Y-88792966D01*
X159336724Y-88789471D01*
X159353810Y-88777199D01*
X159379804Y-88754594D01*
X159416510Y-88720100D01*
X159465733Y-88672162D01*
X159529274Y-88609224D01*
X159596695Y-88541968D01*
X159872399Y-88266477D01*
X159870467Y-88264406D01*
X160052710Y-88264406D01*
X160061016Y-88275780D01*
X160084267Y-88302563D01*
X160120135Y-88342292D01*
X160166287Y-88392507D01*
X160220394Y-88450746D01*
X160280126Y-88514547D01*
X160343152Y-88581449D01*
X160407142Y-88648990D01*
X160469764Y-88714710D01*
X160528690Y-88776146D01*
X160581588Y-88830837D01*
X160626128Y-88876322D01*
X160659980Y-88910138D01*
X160680812Y-88929826D01*
X160686494Y-88933837D01*
X160688366Y-88920891D01*
X160692254Y-88885134D01*
X160697943Y-88828804D01*
X160705219Y-88754140D01*
X160713869Y-88663380D01*
X160723678Y-88558762D01*
X160734434Y-88442526D01*
X160745921Y-88316908D01*
X160755093Y-88215618D01*
X160766826Y-88084279D01*
X160777665Y-87960552D01*
X160787430Y-87846681D01*
X160795937Y-87744911D01*
X160803005Y-87657487D01*
X160808451Y-87586653D01*
X160812092Y-87534653D01*
X160813747Y-87503732D01*
X160813558Y-87495703D01*
X160803666Y-87502854D01*
X160778476Y-87525841D01*
X160740190Y-87562439D01*
X160691011Y-87610422D01*
X160633139Y-87667566D01*
X160568778Y-87731647D01*
X160500129Y-87800438D01*
X160429395Y-87871716D01*
X160358778Y-87943255D01*
X160290480Y-88012830D01*
X160226704Y-88078217D01*
X160169650Y-88137191D01*
X160121522Y-88187527D01*
X160084522Y-88226999D01*
X160060852Y-88253383D01*
X160052710Y-88264406D01*
X159870467Y-88264406D01*
X159769591Y-88156295D01*
X159717232Y-88100377D01*
X159658465Y-88037948D01*
X159595615Y-87971443D01*
X159531005Y-87903298D01*
X159466958Y-87835948D01*
X159405797Y-87771828D01*
X159349847Y-87713372D01*
X159301430Y-87663018D01*
X159262870Y-87623198D01*
X159236491Y-87596350D01*
X159224616Y-87584908D01*
X159224195Y-87584674D01*
X159100604Y-87584674D01*
X159088599Y-87440726D01*
X158488062Y-86809158D01*
X157887525Y-86177589D01*
X157887966Y-86089315D01*
X157888408Y-86001040D01*
X157985417Y-86104666D01*
X158039709Y-86162463D01*
X158103808Y-86230368D01*
X158175984Y-86306572D01*
X158254508Y-86389269D01*
X158337651Y-86476653D01*
X158423681Y-86566915D01*
X158510870Y-86658250D01*
X158597487Y-86748849D01*
X158681803Y-86836907D01*
X158762088Y-86920615D01*
X158836613Y-86998167D01*
X158903646Y-87067757D01*
X158961459Y-87127576D01*
X159008321Y-87175818D01*
X159042504Y-87210676D01*
X159062276Y-87230343D01*
X159066610Y-87234116D01*
X159066908Y-87220992D01*
X159065269Y-87187389D01*
X159061977Y-87137880D01*
X159057318Y-87077037D01*
X159055318Y-87052732D01*
X159040423Y-86874951D01*
X159157045Y-86874951D01*
X159163066Y-86903243D01*
X159166137Y-86925618D01*
X159170452Y-86967717D01*
X159175512Y-87024178D01*
X159180819Y-87089635D01*
X159182656Y-87113862D01*
X159188073Y-87183421D01*
X159193541Y-87248018D01*
X159198512Y-87301548D01*
X159202439Y-87337910D01*
X159203325Y-87344509D01*
X159206666Y-87358056D01*
X159213899Y-87373914D01*
X159226560Y-87393861D01*
X159246189Y-87419673D01*
X159274322Y-87453129D01*
X159312498Y-87496007D01*
X159362254Y-87550083D01*
X159425129Y-87617136D01*
X159502659Y-87698943D01*
X159581749Y-87781950D01*
X159660436Y-87864094D01*
X159733888Y-87940169D01*
X159800276Y-88008325D01*
X159857773Y-88066712D01*
X159904549Y-88113481D01*
X159938776Y-88146782D01*
X159958627Y-88164767D01*
X159962860Y-88167442D01*
X159973997Y-88157741D01*
X160000029Y-88132441D01*
X160038430Y-88094082D01*
X160086672Y-88045200D01*
X160142230Y-87988334D01*
X160182408Y-87946906D01*
X160392169Y-87730000D01*
X159773663Y-87730000D01*
X159773663Y-87491089D01*
X160528119Y-87491089D01*
X160528119Y-87597542D01*
X160666435Y-87459654D01*
X160764553Y-87361840D01*
X160955643Y-87361840D01*
X160957471Y-87377270D01*
X160966723Y-87385867D01*
X160989050Y-87389613D01*
X161030105Y-87390489D01*
X161037376Y-87390495D01*
X161119109Y-87390495D01*
X161119109Y-87171172D01*
X161037376Y-87252179D01*
X160991270Y-87301428D01*
X160963694Y-87339159D01*
X160955643Y-87361840D01*
X160764553Y-87361840D01*
X160804752Y-87321766D01*
X160804752Y-87198952D01*
X160805137Y-87142450D01*
X160806900Y-87106505D01*
X160810950Y-87086530D01*
X160818199Y-87077937D01*
X160829130Y-87076139D01*
X160841288Y-87073498D01*
X160850273Y-87062912D01*
X160857174Y-87040381D01*
X160863076Y-87001909D01*
X160869065Y-86943498D01*
X160870987Y-86922104D01*
X160875148Y-86874951D01*
X159157045Y-86874951D01*
X159040423Y-86874951D01*
X158880891Y-86874951D01*
X158880891Y-86761782D01*
X158948686Y-86761782D01*
X158988338Y-86760696D01*
X159009884Y-86755454D01*
X159012520Y-86752334D01*
X159151384Y-86752334D01*
X159158692Y-86759462D01*
X159184007Y-86761662D01*
X159201092Y-86761782D01*
X159258119Y-86761782D01*
X159470779Y-86761782D01*
X160885302Y-86761782D01*
X160837458Y-86712786D01*
X160763150Y-86652324D01*
X160671184Y-86605691D01*
X160560002Y-86572249D01*
X160449529Y-86553753D01*
X160377227Y-86545122D01*
X160377227Y-86636040D01*
X159798812Y-86636040D01*
X159798812Y-86535446D01*
X159899406Y-86535446D01*
X160276633Y-86535446D01*
X160276633Y-86472575D01*
X159899406Y-86472575D01*
X159899406Y-86535446D01*
X159798812Y-86535446D01*
X159798812Y-86532893D01*
X159713935Y-86541496D01*
X159654632Y-86548756D01*
X159591449Y-86558379D01*
X159553614Y-86565252D01*
X159478168Y-86580407D01*
X159474474Y-86671095D01*
X159470779Y-86761782D01*
X159258119Y-86761782D01*
X159258119Y-86711485D01*
X159256456Y-86679976D01*
X159252303Y-86662463D01*
X159250629Y-86661188D01*
X159232013Y-86669254D01*
X159204817Y-86688820D01*
X159177552Y-86712944D01*
X159158733Y-86734682D01*
X159157057Y-86737508D01*
X159151384Y-86752334D01*
X159012520Y-86752334D01*
X159020338Y-86743081D01*
X159024558Y-86729604D01*
X159041781Y-86694627D01*
X159074862Y-86652579D01*
X159118107Y-86609356D01*
X159165826Y-86570854D01*
X159197170Y-86550801D01*
X159232877Y-86528851D01*
X159251181Y-86510411D01*
X159257612Y-86488668D01*
X159258106Y-86475718D01*
X159258106Y-86472575D01*
X159258119Y-86434852D01*
X159363952Y-86434852D01*
X159412645Y-86436029D01*
X159450595Y-86439165D01*
X159471692Y-86443671D01*
X159473977Y-86445495D01*
X159487359Y-86448295D01*
X159519926Y-86447148D01*
X159566084Y-86442393D01*
X159597624Y-86438003D01*
X159654812Y-86429378D01*
X159707114Y-86421591D01*
X159746418Y-86415847D01*
X159757945Y-86414215D01*
X159788063Y-86404888D01*
X159798812Y-86390272D01*
X159802080Y-86384320D01*
X159813770Y-86379778D01*
X159836712Y-86376470D01*
X159873735Y-86374215D01*
X159927668Y-86372834D01*
X160001340Y-86372150D01*
X160088020Y-86371980D01*
X160180529Y-86372077D01*
X160250906Y-86372530D01*
X160302164Y-86373590D01*
X160337320Y-86375503D01*
X160359389Y-86378519D01*
X160371385Y-86382885D01*
X160376324Y-86388849D01*
X160377227Y-86395784D01*
X160384921Y-86417795D01*
X160410121Y-86430321D01*
X160456009Y-86434788D01*
X160464264Y-86434852D01*
X160541973Y-86442868D01*
X160630233Y-86464936D01*
X160721085Y-86498084D01*
X160806570Y-86539339D01*
X160878726Y-86585731D01*
X160888072Y-86593082D01*
X160918533Y-86616998D01*
X160936572Y-86626576D01*
X160949169Y-86623480D01*
X160962100Y-86610704D01*
X161000293Y-86585678D01*
X161049998Y-86576071D01*
X161103524Y-86581067D01*
X161153178Y-86599851D01*
X161191267Y-86631606D01*
X161194025Y-86635297D01*
X161222526Y-86694575D01*
X161227828Y-86755934D01*
X161210518Y-86814427D01*
X161171180Y-86865104D01*
X161166370Y-86869289D01*
X161138440Y-86889167D01*
X161110102Y-86897921D01*
X161070263Y-86898553D01*
X161060311Y-86897992D01*
X161021332Y-86896562D01*
X161001254Y-86899839D01*
X160993985Y-86909728D01*
X160993240Y-86918961D01*
X160991716Y-86945744D01*
X160987935Y-86986025D01*
X160985218Y-87010124D01*
X160981277Y-87048401D01*
X160982916Y-87067996D01*
X160992421Y-87075158D01*
X161009351Y-87076139D01*
X161019392Y-87072901D01*
X161035590Y-87062420D01*
X161059145Y-87043548D01*
X161091257Y-87015135D01*
X161133128Y-86976035D01*
X161185957Y-86925097D01*
X161250945Y-86861173D01*
X161329291Y-86783114D01*
X161422197Y-86689772D01*
X161530863Y-86579998D01*
X161583231Y-86526952D01*
X162125049Y-85977767D01*
X162124430Y-86064848D01*
G37*
D15*
G36*
X125529620Y-79765782D02*
G01*
X125565842Y-79822359D01*
X125619352Y-79906027D01*
X125684959Y-80008665D01*
X125757471Y-80122151D01*
X125827049Y-80231085D01*
X125895354Y-80337788D01*
X125956052Y-80432114D01*
X126005545Y-80508516D01*
X126040238Y-80561444D01*
X126056534Y-80585350D01*
X126057087Y-80586010D01*
X126074447Y-80580231D01*
X126086419Y-80565122D01*
X126106320Y-80533565D01*
X126141930Y-80477469D01*
X126186472Y-80407503D01*
X126199069Y-80387746D01*
X126250460Y-80306387D01*
X126314006Y-80204630D01*
X126380177Y-80097784D01*
X126420206Y-80032648D01*
X126478008Y-79939354D01*
X126534794Y-79849639D01*
X126583166Y-79775090D01*
X126610248Y-79734991D01*
X126672415Y-79646217D01*
X126973913Y-79646217D01*
X127275410Y-79646217D01*
X127275410Y-80283306D01*
X127275410Y-80920394D01*
X127024752Y-80920394D01*
X126774094Y-80920394D01*
X126774094Y-80513075D01*
X126773462Y-80365563D01*
X126771387Y-80255619D01*
X126767599Y-80179053D01*
X126761831Y-80131673D01*
X126753812Y-80109288D01*
X126747984Y-80106105D01*
X126727072Y-80123245D01*
X126691574Y-80169172D01*
X126647133Y-80236122D01*
X126615162Y-80288877D01*
X126558875Y-80384902D01*
X126491054Y-80500311D01*
X126421442Y-80618535D01*
X126375405Y-80696567D01*
X126242360Y-80921836D01*
X126056938Y-80915893D01*
X125871516Y-80909950D01*
X125737351Y-80690625D01*
X125672246Y-80582172D01*
X125603267Y-80463951D01*
X125540105Y-80352720D01*
X125504830Y-80288528D01*
X125460673Y-80211114D01*
X125421029Y-80149952D01*
X125391338Y-80113009D01*
X125380087Y-80105756D01*
X125370559Y-80115263D01*
X125363458Y-80146645D01*
X125358507Y-80204189D01*
X125355428Y-80292186D01*
X125353942Y-80414925D01*
X125353700Y-80513075D01*
X125353700Y-80920394D01*
X125103042Y-80920394D01*
X124852384Y-80920394D01*
X124850777Y-80377302D01*
X124850276Y-80225623D01*
X124849708Y-80083236D01*
X124849108Y-79956887D01*
X124848510Y-79853320D01*
X124847948Y-79779281D01*
X124847541Y-79745436D01*
X124845911Y-79656661D01*
X125149098Y-79650897D01*
X125452286Y-79645133D01*
X125529620Y-79765782D01*
G37*
G36*
X129050925Y-79787212D02*
G01*
X129050947Y-79928207D01*
X128627940Y-79922074D01*
X128496278Y-79920776D01*
X128376462Y-79920743D01*
X128275678Y-79921885D01*
X128201115Y-79924113D01*
X128159961Y-79927337D01*
X128156912Y-79927950D01*
X128129861Y-79938491D01*
X128116404Y-79959960D01*
X128113033Y-80003399D01*
X128115136Y-80059413D01*
X128121381Y-80178865D01*
X128513034Y-80184548D01*
X128904687Y-80190231D01*
X128904687Y-80283306D01*
X128904687Y-80376380D01*
X128513034Y-80382063D01*
X128121381Y-80387746D01*
X128114954Y-80500654D01*
X128115775Y-80582148D01*
X128129915Y-80625596D01*
X128135843Y-80630885D01*
X128163785Y-80635830D01*
X128227260Y-80640252D01*
X128320026Y-80643938D01*
X128435840Y-80646672D01*
X128568459Y-80648239D01*
X128648807Y-80648528D01*
X129134456Y-80648848D01*
X129134456Y-80784621D01*
X129134456Y-80920394D01*
X128372039Y-80920394D01*
X127609621Y-80920394D01*
X127609621Y-80283306D01*
X127609621Y-79646217D01*
X128330262Y-79646217D01*
X129050904Y-79646217D01*
X129050925Y-79787212D01*
G37*
G36*
X129839089Y-79646579D02*
G01*
X130092171Y-79649201D01*
X130307926Y-79657064D01*
X130490549Y-79670816D01*
X130644238Y-79691105D01*
X130773188Y-79718580D01*
X130881596Y-79753887D01*
X130973657Y-79797676D01*
X131024835Y-79829690D01*
X131090740Y-79883227D01*
X131137512Y-79943819D01*
X131168009Y-80019407D01*
X131185090Y-80117928D01*
X131191614Y-80247322D01*
X131191940Y-80293750D01*
X131190519Y-80407944D01*
X131185528Y-80489494D01*
X131175870Y-80547456D01*
X131160451Y-80590890D01*
X131154636Y-80602262D01*
X131082303Y-80692382D01*
X130972673Y-80768377D01*
X130828116Y-80829230D01*
X130651001Y-80873925D01*
X130460854Y-80899944D01*
X130380032Y-80905607D01*
X130275771Y-80910378D01*
X130154849Y-80914207D01*
X130024043Y-80917047D01*
X129890131Y-80918850D01*
X129759891Y-80919568D01*
X129640100Y-80919154D01*
X129537535Y-80917560D01*
X129458974Y-80914736D01*
X129411196Y-80910637D01*
X129400010Y-80907439D01*
X129396708Y-80884054D01*
X129393630Y-80824151D01*
X129390893Y-80732989D01*
X129388615Y-80615826D01*
X129386912Y-80477921D01*
X129385905Y-80324533D01*
X129385742Y-80270350D01*
X129385512Y-80161143D01*
X129889678Y-80161143D01*
X129891103Y-80284878D01*
X129896874Y-80617516D01*
X130001315Y-80630816D01*
X130112279Y-80637479D01*
X130240778Y-80633965D01*
X130366483Y-80621474D01*
X130459593Y-80603765D01*
X130557733Y-80558428D01*
X130632599Y-80484016D01*
X130679776Y-80388731D01*
X130694852Y-80280772D01*
X130681178Y-80191968D01*
X130646252Y-80103300D01*
X130596118Y-80036125D01*
X130525397Y-79987645D01*
X130428711Y-79955060D01*
X130300683Y-79935569D01*
X130173230Y-79927567D01*
X130076549Y-79925462D01*
X129994149Y-79926469D01*
X129935666Y-79930294D01*
X129911991Y-79935521D01*
X129901483Y-79953000D01*
X129894455Y-79993193D01*
X129890616Y-80060955D01*
X129889678Y-80161143D01*
X129385512Y-80161143D01*
X129384430Y-79646217D01*
X129839089Y-79646579D01*
G37*
G36*
X131975246Y-80283306D02*
G01*
X131975246Y-80920394D01*
X131724588Y-80920394D01*
X131473930Y-80920394D01*
X131473930Y-80283306D01*
X131473930Y-79646217D01*
X131724588Y-79646217D01*
X131975246Y-79646217D01*
X131975246Y-80283306D01*
G37*
G36*
X133601263Y-79849613D02*
G01*
X133668340Y-79953320D01*
X133740525Y-80065701D01*
X133807011Y-80169902D01*
X133839140Y-80220641D01*
X133901122Y-80317834D01*
X133969731Y-80423709D01*
X134031938Y-80518190D01*
X134042472Y-80533963D01*
X134099787Y-80621995D01*
X134158241Y-80715787D01*
X134205760Y-80795937D01*
X134208225Y-80800287D01*
X134276009Y-80920394D01*
X134034003Y-80920394D01*
X133791997Y-80920394D01*
X133718506Y-80805510D01*
X133645015Y-80690625D01*
X133239854Y-80690625D01*
X133096961Y-80690519D01*
X132989504Y-80691550D01*
X132911151Y-80695739D01*
X132855569Y-80705109D01*
X132816428Y-80721680D01*
X132787396Y-80747475D01*
X132762141Y-80784516D01*
X132734331Y-80834823D01*
X132722969Y-80855673D01*
X132687386Y-80920394D01*
X132446201Y-80920394D01*
X132351421Y-80919539D01*
X132274153Y-80917215D01*
X132222627Y-80913781D01*
X132205016Y-80909828D01*
X132215712Y-80889736D01*
X132245491Y-80840084D01*
X132290890Y-80766485D01*
X132348446Y-80674549D01*
X132414696Y-80569888D01*
X132419119Y-80562937D01*
X132503534Y-80430307D01*
X132526974Y-80393468D01*
X132998766Y-80393468D01*
X133011573Y-80405370D01*
X133052919Y-80413295D01*
X133127187Y-80417708D01*
X133238760Y-80419079D01*
X133238979Y-80419079D01*
X133333551Y-80417735D01*
X133410594Y-80414082D01*
X133461865Y-80408689D01*
X133479193Y-80402536D01*
X133469441Y-80378947D01*
X133443692Y-80328760D01*
X133407204Y-80261343D01*
X133365239Y-80186062D01*
X133323054Y-80112283D01*
X133285911Y-80049374D01*
X133259068Y-80006700D01*
X133250312Y-79994934D01*
X133234776Y-80005123D01*
X133204119Y-80043384D01*
X133163628Y-80101339D01*
X133118592Y-80170609D01*
X133074299Y-80242816D01*
X133036039Y-80309580D01*
X133009098Y-80362523D01*
X132998767Y-80393267D01*
X132998766Y-80393468D01*
X132526974Y-80393468D01*
X132596512Y-80284178D01*
X132689377Y-80138188D01*
X132773453Y-80005975D01*
X132814354Y-79941636D01*
X132995485Y-79656661D01*
X133232117Y-79651176D01*
X133468749Y-79645691D01*
X133601263Y-79849613D01*
G37*
G36*
X131499024Y-78227899D02*
G01*
X131600008Y-78232742D01*
X131681827Y-78239923D01*
X131731848Y-78248371D01*
X131781019Y-78271452D01*
X131843176Y-78313361D01*
X131909096Y-78366086D01*
X131969558Y-78421618D01*
X132015338Y-78471945D01*
X132037215Y-78509058D01*
X132037910Y-78514216D01*
X132018741Y-78526559D01*
X131967692Y-78534851D01*
X131894450Y-78539215D01*
X131808702Y-78539775D01*
X131720135Y-78536656D01*
X131638436Y-78529981D01*
X131573293Y-78519873D01*
X131536594Y-78507812D01*
X131453007Y-78479909D01*
X131361618Y-78480118D01*
X131279275Y-78507297D01*
X131250547Y-78527247D01*
X131213398Y-78565913D01*
X131208891Y-78592621D01*
X131215877Y-78602360D01*
X131244644Y-78613444D01*
X131306527Y-78626629D01*
X131393021Y-78640413D01*
X131495620Y-78653297D01*
X131518755Y-78655783D01*
X131655510Y-78671282D01*
X131758434Y-78686767D01*
X131835405Y-78704598D01*
X131894299Y-78727133D01*
X131942996Y-78756732D01*
X131989372Y-78795755D01*
X131990912Y-78797191D01*
X132042159Y-78861994D01*
X132057689Y-78931949D01*
X132038300Y-79014946D01*
X132017495Y-79060421D01*
X131966033Y-79135952D01*
X131891392Y-79199902D01*
X131785329Y-79258932D01*
X131754272Y-79273111D01*
X131668359Y-79299184D01*
X131555236Y-79317038D01*
X131428791Y-79325938D01*
X131302915Y-79325147D01*
X131191498Y-79313930D01*
X131149310Y-79305165D01*
X131004736Y-79253469D01*
X130891682Y-79181478D01*
X130813682Y-79091468D01*
X130811303Y-79087459D01*
X130759491Y-78998684D01*
X130981672Y-78998684D01*
X131094257Y-79000528D01*
X131172983Y-79006691D01*
X131225633Y-79018115D01*
X131254329Y-79031757D01*
X131315889Y-79056325D01*
X131390410Y-79063979D01*
X131466947Y-79056741D01*
X131534555Y-79036628D01*
X131582289Y-79005662D01*
X131599259Y-78968103D01*
X131596092Y-78947269D01*
X131582155Y-78931966D01*
X131550795Y-78920305D01*
X131495361Y-78910396D01*
X131409199Y-78900351D01*
X131334612Y-78892954D01*
X131163354Y-78872325D01*
X131029090Y-78846411D01*
X130927228Y-78813911D01*
X130853177Y-78773524D01*
X130823309Y-78748152D01*
X130775325Y-78674336D01*
X130763530Y-78590621D01*
X130785425Y-78502868D01*
X130838509Y-78416940D01*
X130920284Y-78338698D01*
X131024835Y-78275605D01*
X131074182Y-78254418D01*
X131122564Y-78240256D01*
X131180132Y-78231745D01*
X131257033Y-78227511D01*
X131363417Y-78226181D01*
X131390377Y-78226143D01*
X131499024Y-78227899D01*
G37*
G36*
X132594771Y-78989921D02*
G01*
X132623976Y-79010571D01*
X132637387Y-79036822D01*
X132623661Y-79062935D01*
X132593494Y-79089341D01*
X132535811Y-79135336D01*
X132580463Y-79175746D01*
X132621507Y-79202425D01*
X132657008Y-79196343D01*
X132660501Y-79194277D01*
X132703636Y-79179528D01*
X132731838Y-79190105D01*
X132733446Y-79221467D01*
X132736290Y-79257798D01*
X132747740Y-79270003D01*
X132768351Y-79294153D01*
X132757348Y-79312302D01*
X132724860Y-79316778D01*
X132696770Y-79308608D01*
X132638113Y-79296560D01*
X132579514Y-79309395D01*
X132492097Y-79328676D01*
X132401778Y-79330682D01*
X132324740Y-79315925D01*
X132293216Y-79300378D01*
X132253515Y-79255574D01*
X132254018Y-79228823D01*
X132351233Y-79228823D01*
X132369333Y-79273564D01*
X132415491Y-79302299D01*
X132477493Y-79310130D01*
X132527074Y-79299327D01*
X132557134Y-79273848D01*
X132550470Y-79239669D01*
X132509129Y-79203649D01*
X132496406Y-79196582D01*
X132433178Y-79176082D01*
X132382435Y-79181548D01*
X132354084Y-79210780D01*
X132351233Y-79228823D01*
X132254018Y-79228823D01*
X132254375Y-79209808D01*
X132295264Y-79169634D01*
X132304234Y-79164789D01*
X132347277Y-79142668D01*
X132370234Y-79130067D01*
X132370252Y-79130055D01*
X132364670Y-79112503D01*
X132343151Y-79084847D01*
X132319441Y-79052708D01*
X132325734Y-79028500D01*
X132341290Y-79011611D01*
X132388255Y-78984122D01*
X132420611Y-78978116D01*
X132449337Y-78982192D01*
X132439246Y-78995450D01*
X132437851Y-78996347D01*
X132420415Y-79019369D01*
X132432604Y-79057264D01*
X132433364Y-79058692D01*
X132469424Y-79097389D01*
X132511289Y-79095190D01*
X132541102Y-79069532D01*
X132557018Y-79039858D01*
X132539514Y-79014751D01*
X132529223Y-79006868D01*
X132503654Y-78985635D01*
X132513687Y-78978495D01*
X132543120Y-78977796D01*
X132594771Y-78989921D01*
G37*
G36*
X133344373Y-78984752D02*
G01*
X133416643Y-79002487D01*
X133471869Y-79027346D01*
X133498985Y-79055365D01*
X133500081Y-79061885D01*
X133482734Y-79076444D01*
X133442748Y-79081743D01*
X133398203Y-79077853D01*
X133367181Y-79064844D01*
X133364308Y-79061348D01*
X133334544Y-79046242D01*
X133282009Y-79041022D01*
X133224426Y-79045309D01*
X133179517Y-79058722D01*
X133170048Y-79065526D01*
X133147780Y-79113553D01*
X133150027Y-79174196D01*
X133175242Y-79227418D01*
X133183182Y-79235660D01*
X133246142Y-79266490D01*
X133320316Y-79262661D01*
X133356270Y-79248054D01*
X133408945Y-79233455D01*
X133454116Y-79232772D01*
X133510525Y-79239666D01*
X133437417Y-79286202D01*
X133342555Y-79324334D01*
X133237281Y-79331238D01*
X133137681Y-79306646D01*
X133108989Y-79291688D01*
X133047218Y-79233735D01*
X133023954Y-79160156D01*
X133034930Y-79088355D01*
X133071572Y-79029743D01*
X133137173Y-78993818D01*
X133235465Y-78978801D01*
X133266127Y-78978104D01*
X133344373Y-78984752D01*
G37*
G36*
X133968664Y-78987366D02*
G01*
X134048774Y-79016688D01*
X134095912Y-79066677D01*
X134103236Y-79083752D01*
X134112251Y-79161632D01*
X134086910Y-79229283D01*
X134034124Y-79282968D01*
X133960807Y-79318947D01*
X133873870Y-79333482D01*
X133780227Y-79322836D01*
X133710207Y-79296308D01*
X133643108Y-79243032D01*
X133612887Y-79173150D01*
X133615675Y-79147587D01*
X133729851Y-79147587D01*
X133747028Y-79213157D01*
X133792268Y-79255779D01*
X133856134Y-79270919D01*
X133929190Y-79254044D01*
X133940106Y-79248607D01*
X133973173Y-79208939D01*
X133980509Y-79158788D01*
X133969698Y-79091200D01*
X133933505Y-79053584D01*
X133866286Y-79040614D01*
X133855180Y-79040460D01*
X133782582Y-79051211D01*
X133742231Y-79085900D01*
X133729851Y-79147587D01*
X133615675Y-79147587D01*
X133621707Y-79092266D01*
X133626578Y-79079418D01*
X133662407Y-79025450D01*
X133720182Y-78993064D01*
X133807155Y-78979012D01*
X133853423Y-78977796D01*
X133968664Y-78987366D01*
G37*
G36*
X125345610Y-78283264D02*
G01*
X125372393Y-78326275D01*
X125414753Y-78392780D01*
X125465375Y-78471328D01*
X125489069Y-78507812D01*
X125553840Y-78609061D01*
X125625714Y-78724143D01*
X125690802Y-78830776D01*
X125700337Y-78846703D01*
X125746796Y-78920773D01*
X125787608Y-78978926D01*
X125816962Y-79013212D01*
X125826348Y-79019030D01*
X125848713Y-79012827D01*
X125873479Y-78988724D01*
X125905906Y-78940066D01*
X125949767Y-78862911D01*
X125985781Y-78801270D01*
X126037549Y-78717648D01*
X126097233Y-78624540D01*
X126139945Y-78559783D01*
X126192853Y-78478492D01*
X126235762Y-78408469D01*
X126263935Y-78357718D01*
X126272779Y-78335235D01*
X126285207Y-78311138D01*
X126292259Y-78309375D01*
X126313472Y-78292135D01*
X126324999Y-78267598D01*
X126333393Y-78250166D01*
X126350261Y-78238386D01*
X126382768Y-78231160D01*
X126438077Y-78227393D01*
X126523353Y-78225988D01*
X126597953Y-78225822D01*
X126857647Y-78225822D01*
X126857647Y-78768914D01*
X126857647Y-79312006D01*
X126648766Y-79312006D01*
X126439884Y-79312006D01*
X126439884Y-78967352D01*
X126439098Y-78832660D01*
X126436515Y-78735295D01*
X126431802Y-78670835D01*
X126424622Y-78634856D01*
X126414640Y-78622934D01*
X126413774Y-78622887D01*
X126395645Y-78640237D01*
X126360770Y-78688419D01*
X126312817Y-78761811D01*
X126255450Y-78854793D01*
X126192335Y-78961746D01*
X126189226Y-78967131D01*
X125990789Y-79311186D01*
X125832434Y-79311596D01*
X125674078Y-79312006D01*
X125602664Y-79186067D01*
X125530303Y-79060386D01*
X125459639Y-78941164D01*
X125393945Y-78833596D01*
X125336495Y-78742877D01*
X125290563Y-78674204D01*
X125259422Y-78632771D01*
X125247677Y-78622697D01*
X125240935Y-78642575D01*
X125235314Y-78698186D01*
X125231152Y-78783492D01*
X125228787Y-78892456D01*
X125228371Y-78967352D01*
X125228371Y-79312006D01*
X125020536Y-79312006D01*
X124812701Y-79312006D01*
X124806432Y-79003906D01*
X124804487Y-78868161D01*
X124803744Y-78722188D01*
X124804215Y-78582933D01*
X124805911Y-78467345D01*
X124806070Y-78460814D01*
X124811976Y-78225822D01*
X125061468Y-78225822D01*
X125310960Y-78225822D01*
X125345610Y-78283264D01*
G37*
G36*
X127567844Y-78768914D02*
G01*
X127567844Y-79312006D01*
X127358963Y-79312006D01*
X127150081Y-79312006D01*
X127150081Y-78768914D01*
X127150081Y-78225822D01*
X127358963Y-78225822D01*
X127567844Y-78225822D01*
X127567844Y-78768914D01*
G37*
G36*
X128278042Y-78643144D02*
G01*
X128278042Y-79060465D01*
X128690583Y-79066129D01*
X129103124Y-79071792D01*
X129109388Y-79191899D01*
X129115653Y-79312006D01*
X128487966Y-79312006D01*
X127860279Y-79312006D01*
X127860279Y-78768914D01*
X127860279Y-78225822D01*
X128069160Y-78225822D01*
X128278042Y-78225822D01*
X128278042Y-78643144D01*
G37*
G36*
X130533963Y-78351151D02*
G01*
X130533963Y-78476480D01*
X130125499Y-78476480D01*
X129717036Y-78476480D01*
X129723402Y-78575699D01*
X129729769Y-78674917D01*
X130069217Y-78674917D01*
X130408665Y-78674917D01*
X130408650Y-78763175D01*
X130408634Y-78851432D01*
X130069201Y-78857171D01*
X129729769Y-78862911D01*
X129723420Y-78961702D01*
X129717071Y-79060494D01*
X130151627Y-79066143D01*
X130586183Y-79071792D01*
X130592448Y-79191899D01*
X130598712Y-79312006D01*
X129950844Y-79312006D01*
X129302975Y-79312006D01*
X129297046Y-79087459D01*
X129295285Y-78980305D01*
X129294690Y-78847146D01*
X129295252Y-78703738D01*
X129296963Y-78565834D01*
X129297361Y-78544366D01*
X129303604Y-78225822D01*
X129918784Y-78225822D01*
X130533963Y-78225822D01*
X130533963Y-78351151D01*
G37*
D16*
X114850000Y-85500000D02*
G75*
G02*
X114650000Y-85500000I-100000J0D01*
G01*
X114650000Y-85500000D02*
G75*
G02*
X114850000Y-85500000I100000J0D01*
G01*
D17*
X119450000Y-85120000D02*
X119450000Y-88880000D01*
X116550000Y-90000000D02*
X117530000Y-90000000D01*
X116550000Y-90000000D02*
X116550000Y-89120000D01*
X116550000Y-84880000D02*
X116550000Y-84000000D01*
X116550000Y-84000000D02*
X117530000Y-84000000D01*
D16*
X120850000Y-93500000D02*
G75*
G02*
X120650000Y-93500000I-100000J0D01*
G01*
X120650000Y-93500000D02*
G75*
G02*
X120850000Y-93500000I100000J0D01*
G01*
D17*
X122550000Y-92000000D02*
X123530000Y-92000000D01*
X122550000Y-92880000D02*
X122550000Y-92000000D01*
X122550000Y-98000000D02*
X122550000Y-97120000D01*
X122550000Y-98000000D02*
X123530000Y-98000000D01*
X125450000Y-93120000D02*
X125450000Y-96880000D01*
D15*
G36*
X137627164Y-78068385D02*
G01*
X137709410Y-78068907D01*
X137789614Y-78069722D01*
X137866989Y-78070834D01*
X137940748Y-78072246D01*
X138010104Y-78073959D01*
X138074270Y-78075977D01*
X138132458Y-78078301D01*
X138183882Y-78080934D01*
X138227755Y-78083879D01*
X138249644Y-78085751D01*
X138328228Y-78097157D01*
X138400796Y-78115912D01*
X138467176Y-78141911D01*
X138527198Y-78175047D01*
X138580691Y-78215215D01*
X138627484Y-78262309D01*
X138667408Y-78316224D01*
X138692088Y-78359774D01*
X138710936Y-78400183D01*
X138731144Y-78448815D01*
X138752262Y-78504295D01*
X138773844Y-78565248D01*
X138795442Y-78630299D01*
X138816606Y-78698072D01*
X138836891Y-78767192D01*
X138855847Y-78836284D01*
X138873027Y-78903973D01*
X138882647Y-78944877D01*
X138898744Y-79015690D01*
X138976631Y-79118017D01*
X138999267Y-79147979D01*
X139021430Y-79177723D01*
X139041954Y-79205654D01*
X139059676Y-79230180D01*
X139073430Y-79249707D01*
X139080190Y-79259727D01*
X139093647Y-79279476D01*
X139104249Y-79292466D01*
X139113774Y-79300538D01*
X139123998Y-79305532D01*
X139124609Y-79305752D01*
X139145736Y-79313433D01*
X139172298Y-79323390D01*
X139202782Y-79335027D01*
X139235673Y-79347747D01*
X139269458Y-79360954D01*
X139302623Y-79374051D01*
X139333656Y-79386441D01*
X139361041Y-79397529D01*
X139383265Y-79406716D01*
X139398816Y-79413408D01*
X139404465Y-79416053D01*
X139436777Y-79435112D01*
X139460691Y-79455941D01*
X139477572Y-79480272D01*
X139488789Y-79509837D01*
X139492869Y-79528024D01*
X139493899Y-79538928D01*
X139494761Y-79559570D01*
X139495455Y-79589923D01*
X139495980Y-79629957D01*
X139496337Y-79679645D01*
X139496525Y-79738960D01*
X139496544Y-79807873D01*
X139496394Y-79886356D01*
X139496074Y-79974382D01*
X139496031Y-79983989D01*
X139495672Y-80059929D01*
X139495312Y-80126750D01*
X139494938Y-80185100D01*
X139494534Y-80235626D01*
X139494088Y-80278978D01*
X139493586Y-80315803D01*
X139493013Y-80346749D01*
X139492357Y-80372464D01*
X139491602Y-80393597D01*
X139490736Y-80410796D01*
X139489744Y-80424708D01*
X139488612Y-80435982D01*
X139487327Y-80445266D01*
X139486016Y-80452516D01*
X139474755Y-80498789D01*
X139459832Y-80542919D01*
X139440800Y-80585337D01*
X139417214Y-80626475D01*
X139388628Y-80666762D01*
X139354596Y-80706629D01*
X139314672Y-80746508D01*
X139268410Y-80786828D01*
X139215365Y-80828021D01*
X139155090Y-80870517D01*
X139087140Y-80914747D01*
X139011068Y-80961141D01*
X138926429Y-81010131D01*
X138884240Y-81033798D01*
X138842031Y-81057176D01*
X138807282Y-81076114D01*
X138778976Y-81091021D01*
X138756097Y-81102309D01*
X138737626Y-81110388D01*
X138722548Y-81115668D01*
X138709844Y-81118559D01*
X138698498Y-81119472D01*
X138687492Y-81118818D01*
X138677343Y-81117283D01*
X138668488Y-81114927D01*
X138656665Y-81110312D01*
X138641221Y-81103079D01*
X138621504Y-81092868D01*
X138596865Y-81079320D01*
X138566650Y-81062075D01*
X138530209Y-81040774D01*
X138486890Y-81015058D01*
X138436042Y-80984568D01*
X138427898Y-80979664D01*
X138374589Y-80947290D01*
X138328322Y-80918578D01*
X138287561Y-80892518D01*
X138250772Y-80868101D01*
X138216419Y-80844319D01*
X138182966Y-80820161D01*
X138165914Y-80807489D01*
X138103880Y-80757793D01*
X138051082Y-80708357D01*
X138007042Y-80658415D01*
X137971282Y-80607204D01*
X137943324Y-80553960D01*
X137941751Y-80549689D01*
X138330225Y-80549689D01*
X138342309Y-80573940D01*
X138358759Y-80597555D01*
X138381002Y-80613411D01*
X138400699Y-80620275D01*
X138408251Y-80620943D01*
X138424647Y-80621588D01*
X138448961Y-80622197D01*
X138480271Y-80622757D01*
X138517652Y-80623256D01*
X138560180Y-80623680D01*
X138606931Y-80624018D01*
X138656981Y-80624255D01*
X138696835Y-80624362D01*
X138757947Y-80624439D01*
X138810073Y-80624423D01*
X138853996Y-80624296D01*
X138890495Y-80624042D01*
X138920353Y-80623642D01*
X138944351Y-80623079D01*
X138963271Y-80622334D01*
X138977893Y-80621391D01*
X138989000Y-80620231D01*
X138997372Y-80618837D01*
X139003021Y-80617426D01*
X139028498Y-80605034D01*
X139048097Y-80585246D01*
X139060835Y-80559118D01*
X139062345Y-80553738D01*
X139063574Y-80543857D01*
X139064641Y-80525431D01*
X139065545Y-80499679D01*
X139066288Y-80467824D01*
X139066867Y-80431084D01*
X139067283Y-80390682D01*
X139067536Y-80347837D01*
X139067625Y-80303770D01*
X139067550Y-80259701D01*
X139067311Y-80216852D01*
X139066907Y-80176442D01*
X139066338Y-80139693D01*
X139065604Y-80107825D01*
X139064704Y-80082058D01*
X139063639Y-80063613D01*
X139062467Y-80053960D01*
X139056973Y-80036947D01*
X139049501Y-80021480D01*
X139047525Y-80018443D01*
X139034516Y-80005414D01*
X139016865Y-79994096D01*
X138998566Y-79986721D01*
X138987906Y-79985100D01*
X138976134Y-79985100D01*
X138973588Y-79891089D01*
X138972342Y-79853699D01*
X138970750Y-79824164D01*
X138968630Y-79800572D01*
X138965797Y-79781011D01*
X138962068Y-79763572D01*
X138960867Y-79758918D01*
X138942805Y-79707604D01*
X138917934Y-79663145D01*
X138886502Y-79625771D01*
X138848754Y-79595713D01*
X138804938Y-79573200D01*
X138755298Y-79558463D01*
X138744391Y-79556418D01*
X138721370Y-79552767D01*
X138703977Y-79551057D01*
X138688266Y-79551292D01*
X138670289Y-79553478D01*
X138652122Y-79556547D01*
X138600790Y-79570043D01*
X138555507Y-79591158D01*
X138516452Y-79619702D01*
X138483806Y-79655487D01*
X138457748Y-79698324D01*
X138438458Y-79748025D01*
X138428147Y-79791871D01*
X138426388Y-79806801D01*
X138424889Y-79829059D01*
X138423762Y-79856208D01*
X138423120Y-79885810D01*
X138423015Y-79902975D01*
X138423015Y-79985100D01*
X138410648Y-79985100D01*
X138387549Y-79989674D01*
X138366031Y-80002196D01*
X138348267Y-80020861D01*
X138336434Y-80043870D01*
X138335323Y-80047519D01*
X138334094Y-80057007D01*
X138333017Y-80075762D01*
X138332103Y-80103282D01*
X138331360Y-80139068D01*
X138330799Y-80182619D01*
X138330430Y-80233436D01*
X138330262Y-80291018D01*
X138330252Y-80307685D01*
X138330225Y-80549689D01*
X137941751Y-80549689D01*
X137922691Y-80497921D01*
X137908904Y-80438321D01*
X137902370Y-80386221D01*
X137899105Y-80347068D01*
X137666587Y-80349798D01*
X137554712Y-80350590D01*
X137435409Y-80350471D01*
X137310679Y-80349485D01*
X137182525Y-80347674D01*
X137052950Y-80345083D01*
X136923957Y-80341755D01*
X136797547Y-80337733D01*
X136675724Y-80333061D01*
X136560490Y-80327781D01*
X136497472Y-80324459D01*
X136461959Y-80322515D01*
X136429013Y-80320767D01*
X136400088Y-80319288D01*
X136376637Y-80318150D01*
X136360113Y-80317427D01*
X136352182Y-80317190D01*
X136337685Y-80317190D01*
X136337685Y-80455599D01*
X136337586Y-80500678D01*
X136337161Y-80537263D01*
X136336217Y-80566627D01*
X136334560Y-80590044D01*
X136331997Y-80608786D01*
X136328335Y-80624126D01*
X136323380Y-80637336D01*
X136316939Y-80649691D01*
X136308818Y-80662462D01*
X136305536Y-80667276D01*
X136278242Y-80698480D01*
X136244336Y-80722546D01*
X136211166Y-80737032D01*
X136201026Y-80740260D01*
X136191246Y-80742726D01*
X136180408Y-80744512D01*
X136167092Y-80745700D01*
X136149879Y-80746371D01*
X136127353Y-80746606D01*
X136098093Y-80746488D01*
X136060682Y-80746098D01*
X136054807Y-80746028D01*
X135929648Y-80744512D01*
X135897190Y-80728522D01*
X135864707Y-80707926D01*
X135836141Y-80680920D01*
X135813758Y-80649887D01*
X135804488Y-80630950D01*
X135793155Y-80602885D01*
X135793155Y-80102308D01*
X135793158Y-80021415D01*
X135793174Y-79949664D01*
X135793216Y-79886431D01*
X135793296Y-79831092D01*
X135793426Y-79783021D01*
X135793618Y-79741594D01*
X135793809Y-79716227D01*
X136222498Y-79716227D01*
X136223669Y-79759091D01*
X136232669Y-79800378D01*
X136248985Y-79838979D01*
X136272101Y-79873786D01*
X136301505Y-79903689D01*
X136336680Y-79927580D01*
X136377114Y-79944350D01*
X136393367Y-79948542D01*
X136429800Y-79954279D01*
X136462993Y-79954255D01*
X136497595Y-79948465D01*
X136497719Y-79948435D01*
X136542168Y-79933218D01*
X136581182Y-79910182D01*
X136614051Y-79880056D01*
X136640066Y-79843571D01*
X136658516Y-79801456D01*
X136665135Y-79776384D01*
X136668245Y-79745800D01*
X136960888Y-79745800D01*
X136961436Y-79769241D01*
X136963640Y-79786814D01*
X136968198Y-79802370D01*
X136973381Y-79814594D01*
X136993466Y-79847376D01*
X137020040Y-79873699D01*
X137051854Y-79892558D01*
X137081682Y-79901890D01*
X137089648Y-79902507D01*
X137106607Y-79903077D01*
X137131784Y-79903597D01*
X137164406Y-79904057D01*
X137203698Y-79904454D01*
X137248885Y-79904780D01*
X137299195Y-79905030D01*
X137353851Y-79905197D01*
X137412080Y-79905275D01*
X137473108Y-79905258D01*
X137500000Y-79905220D01*
X137898019Y-79904520D01*
X137899307Y-79744446D01*
X137900595Y-79584372D01*
X137488971Y-79585726D01*
X137077347Y-79587081D01*
X137044765Y-79603123D01*
X137012276Y-79623717D01*
X136987830Y-79649659D01*
X136971285Y-79681188D01*
X136962502Y-79718546D01*
X136960888Y-79745800D01*
X136668245Y-79745800D01*
X136669598Y-79732495D01*
X136665278Y-79689265D01*
X136652902Y-79647967D01*
X136633198Y-79609875D01*
X136606892Y-79576261D01*
X136574711Y-79548398D01*
X136537383Y-79527558D01*
X136519135Y-79520822D01*
X136478301Y-79512244D01*
X136435233Y-79510710D01*
X136392578Y-79515947D01*
X136352977Y-79527683D01*
X136326770Y-79540648D01*
X136304207Y-79557613D01*
X136281170Y-79580427D01*
X136260636Y-79605800D01*
X136245702Y-79630202D01*
X136229671Y-79672894D01*
X136222498Y-79716227D01*
X135793809Y-79716227D01*
X135793885Y-79706187D01*
X135794239Y-79676174D01*
X135794692Y-79650931D01*
X135795256Y-79629834D01*
X135795943Y-79612257D01*
X135796765Y-79597575D01*
X135797736Y-79585166D01*
X135798866Y-79574402D01*
X135800169Y-79564661D01*
X135801655Y-79555317D01*
X135803339Y-79545746D01*
X135804105Y-79541521D01*
X135813068Y-79497189D01*
X135823494Y-79456165D01*
X135835994Y-79417243D01*
X135851179Y-79379218D01*
X135869661Y-79340886D01*
X135892052Y-79301041D01*
X135918962Y-79258479D01*
X135951004Y-79211995D01*
X135988789Y-79160383D01*
X136015273Y-79125405D01*
X136039967Y-79092993D01*
X136059342Y-79067190D01*
X136074100Y-79046913D01*
X136084945Y-79031081D01*
X136092578Y-79018613D01*
X136097703Y-79008425D01*
X136101022Y-78999438D01*
X136103237Y-78990568D01*
X136103414Y-78989703D01*
X136114790Y-78937266D01*
X136118480Y-78922102D01*
X136371871Y-78922102D01*
X136374259Y-78941720D01*
X136382452Y-78955487D01*
X136393847Y-78964044D01*
X136396399Y-78965392D01*
X136399569Y-78966482D01*
X136404143Y-78967296D01*
X136410910Y-78967815D01*
X136420657Y-78968020D01*
X136434172Y-78967893D01*
X136452242Y-78967414D01*
X136475655Y-78966565D01*
X136505199Y-78965328D01*
X136541661Y-78963682D01*
X136585829Y-78961611D01*
X136638491Y-78959094D01*
X136674658Y-78957354D01*
X136797491Y-78952138D01*
X136928425Y-78947873D01*
X137065842Y-78944561D01*
X137208122Y-78942202D01*
X137353647Y-78940796D01*
X137500797Y-78940342D01*
X137647954Y-78940841D01*
X137793498Y-78942294D01*
X137935810Y-78944700D01*
X138073272Y-78948060D01*
X138204264Y-78952373D01*
X138318015Y-78957200D01*
X138376458Y-78959984D01*
X138425929Y-78962329D01*
X138467214Y-78964251D01*
X138501098Y-78965767D01*
X138528367Y-78966895D01*
X138549806Y-78967651D01*
X138566200Y-78968053D01*
X138578335Y-78968116D01*
X138586997Y-78967858D01*
X138592969Y-78967297D01*
X138597039Y-78966448D01*
X138599990Y-78965329D01*
X138602609Y-78963956D01*
X138603711Y-78963356D01*
X138614666Y-78954163D01*
X138622933Y-78942292D01*
X138625310Y-78936388D01*
X138626436Y-78929761D01*
X138626086Y-78920866D01*
X138624037Y-78908159D01*
X138620063Y-78890096D01*
X138613941Y-78865130D01*
X138608778Y-78844762D01*
X138593375Y-78786893D01*
X138576395Y-78727562D01*
X138558673Y-78669506D01*
X138541047Y-78615461D01*
X138524353Y-78568166D01*
X138523694Y-78566392D01*
X138500985Y-78509893D01*
X138478050Y-78462422D01*
X138454214Y-78423249D01*
X138428804Y-78391644D01*
X138401148Y-78366879D01*
X138370571Y-78348223D01*
X138336400Y-78334948D01*
X138302832Y-78327139D01*
X138272101Y-78322541D01*
X138235075Y-78318411D01*
X138191428Y-78314737D01*
X138140832Y-78311509D01*
X138082961Y-78308715D01*
X138017487Y-78306346D01*
X137944084Y-78304389D01*
X137862425Y-78302835D01*
X137772181Y-78301672D01*
X137673027Y-78300890D01*
X137564634Y-78300477D01*
X137495116Y-78300403D01*
X137374639Y-78300649D01*
X137262969Y-78301422D01*
X137160209Y-78302719D01*
X137066461Y-78304537D01*
X136981829Y-78306871D01*
X136906416Y-78309719D01*
X136840323Y-78313077D01*
X136783654Y-78316942D01*
X136736512Y-78321310D01*
X136698999Y-78326177D01*
X136692108Y-78327305D01*
X136655580Y-78335839D01*
X136623247Y-78348668D01*
X136594364Y-78366575D01*
X136568191Y-78390349D01*
X136543985Y-78420775D01*
X136521004Y-78458640D01*
X136498505Y-78504730D01*
X136477941Y-78554183D01*
X136463640Y-78592237D01*
X136449121Y-78633561D01*
X136434773Y-78676802D01*
X136420988Y-78720607D01*
X136408155Y-78763622D01*
X136396665Y-78804494D01*
X136386907Y-78841869D01*
X136379272Y-78874395D01*
X136374150Y-78900719D01*
X136371932Y-78919486D01*
X136371871Y-78922102D01*
X136118480Y-78922102D01*
X136128579Y-78880600D01*
X136144390Y-78820890D01*
X136161833Y-78759319D01*
X136180518Y-78697070D01*
X136200053Y-78635327D01*
X136220049Y-78575274D01*
X136240116Y-78518094D01*
X136259862Y-78464972D01*
X136278898Y-78417089D01*
X136296833Y-78375631D01*
X136313277Y-78341781D01*
X136322649Y-78324971D01*
X136360524Y-78271070D01*
X136405715Y-78223389D01*
X136457803Y-78182190D01*
X136516366Y-78147731D01*
X136580986Y-78120273D01*
X136651241Y-78100074D01*
X136702074Y-78090609D01*
X136730265Y-78087269D01*
X136767434Y-78084189D01*
X136812792Y-78081371D01*
X136865553Y-78078818D01*
X136924930Y-78076532D01*
X136990136Y-78074515D01*
X137060383Y-78072771D01*
X137134884Y-78071301D01*
X137212853Y-78070108D01*
X137293503Y-78069195D01*
X137376046Y-78068563D01*
X137459695Y-78068216D01*
X137543664Y-78068156D01*
X137627164Y-78068385D01*
G37*
G36*
X138742823Y-79653851D02*
G01*
X138746344Y-79654825D01*
X138783401Y-79670424D01*
X138814756Y-79693797D01*
X138839956Y-79724477D01*
X138858544Y-79762001D01*
X138862488Y-79773625D01*
X138866189Y-79787047D01*
X138868852Y-79800936D01*
X138870637Y-79817218D01*
X138871702Y-79837822D01*
X138872206Y-79864675D01*
X138872313Y-79892825D01*
X138872313Y-79980217D01*
X138696500Y-79980217D01*
X138520688Y-79980217D01*
X138520773Y-79903299D01*
X138521728Y-79855786D01*
X138524741Y-79816411D01*
X138530205Y-79783686D01*
X138538516Y-79756125D01*
X138550067Y-79732241D01*
X138565252Y-79710547D01*
X138574768Y-79699581D01*
X138601345Y-79677512D01*
X138633807Y-79661287D01*
X138669785Y-79651523D01*
X138706913Y-79648839D01*
X138742823Y-79653851D01*
G37*
D17*
X110450000Y-92500000D02*
X110450260Y-98497200D01*
X110457880Y-98500000D02*
X116450000Y-98500000D01*
X116450000Y-92500000D02*
X110450000Y-92500000D01*
X116450000Y-98500000D02*
X116450000Y-92500000D01*
D18*
X107300000Y-93250000D02*
G75*
G02*
X106900000Y-93250000I-200000J0D01*
G01*
X106900000Y-93250000D02*
G75*
G02*
X107300000Y-93250000I200000J0D01*
G01*
D17*
X115200000Y-95500000D02*
G75*
G02*
X111700000Y-95500000I-1750000J0D01*
G01*
X111700000Y-95500000D02*
G75*
G02*
X115200000Y-95500000I1750000J0D01*
G01*
X112500000Y-85500000D02*
G75*
G02*
X100500000Y-85500000I-6000000J0D01*
G01*
X100500000Y-85500000D02*
G75*
G02*
X112500000Y-85500000I6000000J0D01*
G01*
M02*
