G04 #@! TF.GenerationSoftware,KiCad,Pcbnew,9.0.2*
G04 #@! TF.CreationDate,2025-06-26T16:26:48+10:00*
G04 #@! TF.ProjectId,PiCam HAT,50694361-6d20-4484-9154-2e6b69636164,rev?*
G04 #@! TF.SameCoordinates,Original*
G04 #@! TF.FileFunction,Copper,L1,Top*
G04 #@! TF.FilePolarity,Positive*
%FSLAX46Y46*%
G04 Gerber Fmt 4.6, Leading zero omitted, Abs format (unit mm)*
G04 Created by KiCad (PCBNEW 9.0.2) date 2025-06-26 16:26:48*
%MOMM*%
%LPD*%
G01*
G04 APERTURE LIST*
G04 #@! TA.AperFunction,EtchedComponent*
%ADD10C,0.200000*%
G04 #@! TD*
G04 #@! TA.AperFunction,EtchedComponent*
%ADD11C,0.100000*%
G04 #@! TD*
G04 #@! TA.AperFunction,SMDPad,CuDef*
%ADD12R,1.800000X1.200000*%
G04 #@! TD*
G04 #@! TA.AperFunction,SMDPad,CuDef*
%ADD13R,1.550000X0.600000*%
G04 #@! TD*
G04 #@! TA.AperFunction,ComponentPad*
%ADD14O,1.700000X1.700000*%
G04 #@! TD*
G04 #@! TA.AperFunction,ComponentPad*
%ADD15R,1.700000X1.700000*%
G04 #@! TD*
G04 #@! TA.AperFunction,SMDPad,CuDef*
%ADD16R,2.100000X1.400000*%
G04 #@! TD*
G04 #@! TA.AperFunction,ComponentPad*
%ADD17C,2.000000*%
G04 #@! TD*
G04 #@! TA.AperFunction,Conductor*
%ADD18C,0.200000*%
G04 #@! TD*
G04 APERTURE END LIST*
D10*
X160350000Y-83490000D02*
X160600000Y-83290000D01*
X162230000Y-83380000D02*
X162320000Y-82870000D01*
X160595000Y-83170000D02*
X160845000Y-82970000D01*
D11*
X162386542Y-83029104D02*
X162182813Y-82694406D01*
X163070490Y-83291042D01*
X162022740Y-83509323D01*
X162342886Y-83276489D01*
X160611188Y-83000000D01*
X161207823Y-84120510D01*
X158632104Y-83392906D01*
X158632104Y-82679854D01*
X160625740Y-83538427D01*
X160000000Y-82374260D01*
X162386542Y-83029104D01*
G04 #@! TA.AperFunction,EtchedComponent*
G36*
X162386542Y-83029104D02*
G01*
X162182813Y-82694406D01*
X163070490Y-83291042D01*
X162022740Y-83509323D01*
X162342886Y-83276489D01*
X160611188Y-83000000D01*
X161207823Y-84120510D01*
X158632104Y-83392906D01*
X158632104Y-82679854D01*
X160625740Y-83538427D01*
X160000000Y-82374260D01*
X162386542Y-83029104D01*
G37*
G04 #@! TD.AperFunction*
D12*
X118750000Y-89800000D03*
X118750000Y-84200000D03*
D13*
X116225000Y-88500000D03*
X116225000Y-87500000D03*
X116225000Y-86500000D03*
X116225000Y-85500000D03*
D12*
X124750000Y-97800000D03*
X124750000Y-92200000D03*
D13*
X122225000Y-96500000D03*
X122225000Y-95500000D03*
X122225000Y-94500000D03*
X122225000Y-93500000D03*
D14*
X156630000Y-72230000D03*
X156630000Y-74770000D03*
X154090000Y-72230000D03*
X154090000Y-74770000D03*
X151550000Y-72230000D03*
X151550000Y-74770000D03*
X149010000Y-72230000D03*
X149010000Y-74770000D03*
X146470000Y-72230000D03*
X146470000Y-74770000D03*
X143930000Y-72230000D03*
X143930000Y-74770000D03*
X141390000Y-72230000D03*
X141390000Y-74770000D03*
X138850000Y-72230000D03*
X138850000Y-74770000D03*
X136310000Y-72230000D03*
X136310000Y-74770000D03*
X133770000Y-72230000D03*
X133770000Y-74770000D03*
X131230000Y-72230000D03*
X131230000Y-74770000D03*
X128690000Y-72230000D03*
X128690000Y-74770000D03*
X126150000Y-72230000D03*
X126150000Y-74770000D03*
X123610000Y-72230000D03*
X123610000Y-74770000D03*
X121070000Y-72230000D03*
X121070000Y-74770000D03*
X118530000Y-72230000D03*
X118530000Y-74770000D03*
X115990000Y-72230000D03*
X115990000Y-74770000D03*
X113450000Y-72230000D03*
X113450000Y-74770000D03*
X110910000Y-72230000D03*
X110910000Y-74770000D03*
X108370000Y-72230000D03*
D15*
X108370000Y-74770000D03*
D16*
X108900000Y-93250000D03*
X118000000Y-93250000D03*
X108900000Y-97750000D03*
X118000000Y-97750000D03*
D17*
X106500000Y-81700000D03*
X106500000Y-89300000D03*
D18*
X106500000Y-89300000D02*
X105199000Y-87999000D01*
X105199000Y-87999000D02*
X105199000Y-72639040D01*
X105199000Y-72639040D02*
X107561040Y-70277000D01*
X141977000Y-70277000D02*
X143930000Y-72230000D01*
X107561040Y-70277000D02*
X141977000Y-70277000D01*
X107727140Y-70678000D02*
X132218000Y-70678000D01*
X113450000Y-74770000D02*
X112061000Y-73381000D01*
X121682900Y-96500000D02*
X122225000Y-96500000D01*
X108901000Y-91901000D02*
X119599000Y-91901000D01*
X112061000Y-73381000D02*
X112061000Y-71753240D01*
X112061000Y-71753240D02*
X111386760Y-71079000D01*
X106818000Y-72154240D02*
X106818000Y-76087100D01*
X111386760Y-71079000D02*
X107893240Y-71079000D01*
X108438000Y-76500000D02*
X108438000Y-91438000D01*
X106818000Y-76087100D02*
X107230900Y-76500000D01*
X108438000Y-91438000D02*
X108901000Y-91901000D01*
X107230900Y-76500000D02*
X108438000Y-76500000D01*
X107893240Y-71079000D02*
X106818000Y-72154240D01*
X119599000Y-91901000D02*
X119599000Y-94416100D01*
X119599000Y-94416100D02*
X121682900Y-96500000D01*
X106500000Y-81700000D02*
X106417000Y-81617000D01*
X106417000Y-71988140D02*
X107727140Y-70678000D01*
X106417000Y-81617000D02*
X106417000Y-71988140D01*
X132218000Y-70678000D02*
X133770000Y-72230000D01*
X110910000Y-74770000D02*
X109640000Y-73500000D01*
X109172900Y-91500000D02*
X120000000Y-91500000D01*
X120000000Y-94250000D02*
X121250000Y-95500000D01*
X109640000Y-73500000D02*
X107338000Y-73500000D01*
X121250000Y-95500000D02*
X122225000Y-95500000D01*
X107338000Y-73500000D02*
X107219000Y-73619000D01*
X108839000Y-75921000D02*
X108839000Y-91166100D01*
X107219000Y-75921000D02*
X108839000Y-75921000D01*
X120000000Y-91500000D02*
X120000000Y-94250000D01*
X107219000Y-73619000D02*
X107219000Y-75921000D01*
X108839000Y-91166100D02*
X109172900Y-91500000D01*
X120500000Y-99000000D02*
X108500000Y-99000000D01*
X120599000Y-99099000D02*
X120500000Y-99000000D01*
X108500000Y-99000000D02*
X108500000Y-98150000D01*
X108500000Y-98150000D02*
X108900000Y-97750000D01*
X128690000Y-72230000D02*
X129960000Y-73500000D01*
X108650000Y-93000000D02*
X108900000Y-93250000D01*
X129960000Y-73500000D02*
X140000000Y-73500000D01*
X140000000Y-73500000D02*
X140000000Y-75500000D01*
X157500000Y-99500000D02*
X107500000Y-99500000D01*
X140000000Y-75500000D02*
X141000000Y-76500000D01*
X141000000Y-76500000D02*
X157500000Y-76500000D01*
X107000000Y-93000000D02*
X108650000Y-93000000D01*
X157500000Y-76500000D02*
X157500000Y-99500000D01*
X107000000Y-99000000D02*
X107000000Y-93000000D01*
X107500000Y-99500000D02*
X107000000Y-99000000D01*
X122225000Y-94500000D02*
X121000000Y-94500000D01*
X109240000Y-91000000D02*
X109240000Y-75640000D01*
X120500000Y-91000000D02*
X109240000Y-91000000D01*
X120500000Y-94000000D02*
X120500000Y-91000000D01*
X121000000Y-94500000D02*
X120500000Y-94000000D01*
X109240000Y-75640000D02*
X108370000Y-74770000D01*
X127000000Y-91000000D02*
X127500000Y-91500000D01*
X121000000Y-91000000D02*
X127000000Y-91000000D01*
X156901000Y-99099000D02*
X127500000Y-99099000D01*
X122225000Y-93500000D02*
X121000000Y-93500000D01*
X121000000Y-93500000D02*
X121000000Y-91000000D01*
X127500000Y-91500000D02*
X127500000Y-99099000D01*
X113599000Y-84666100D02*
X115432900Y-86500000D01*
X115432900Y-86500000D02*
X116225000Y-86500000D01*
X114000000Y-84500000D02*
X115000000Y-85500000D01*
X115000000Y-85500000D02*
X116225000Y-85500000D01*
X114000000Y-78000000D02*
X114000000Y-84500000D01*
X157000000Y-77000000D02*
X139877919Y-77000000D01*
X138850000Y-75972081D02*
X138850000Y-74770000D01*
X139877919Y-77000000D02*
X138850000Y-75972081D01*
X157000000Y-99000000D02*
X156901000Y-99099000D01*
X157000000Y-77000000D02*
X157000000Y-99000000D01*
X127500000Y-99099000D02*
X120599000Y-99099000D01*
X112797000Y-77501700D02*
X114199700Y-76099000D01*
X114199700Y-76099000D02*
X117201000Y-76099000D01*
X117201000Y-76099000D02*
X118530000Y-74770000D01*
X114365800Y-76500000D02*
X119500000Y-76500000D01*
X113198000Y-77667800D02*
X114365800Y-76500000D01*
X119500000Y-76500000D02*
X119919000Y-76081000D01*
X119919000Y-76081000D02*
X119919000Y-73619000D01*
X119919000Y-73619000D02*
X118530000Y-72230000D01*
X114500000Y-77500000D02*
X128000000Y-77500000D01*
X128000000Y-77500000D02*
X128690000Y-76810000D01*
X114000000Y-78000000D02*
X114500000Y-77500000D01*
X128690000Y-76810000D02*
X128690000Y-74770000D01*
X124761000Y-71753240D02*
X124086760Y-71079000D01*
X124086760Y-71079000D02*
X117141000Y-71079000D01*
X124761000Y-75739000D02*
X124761000Y-71753240D01*
X117141000Y-71079000D02*
X115990000Y-72230000D01*
X123500000Y-77000000D02*
X124761000Y-75739000D01*
X114432900Y-77000000D02*
X123500000Y-77000000D01*
X113599000Y-77833900D02*
X114432900Y-77000000D01*
X113599000Y-77833900D02*
X113599000Y-84666100D01*
X115250000Y-87500000D02*
X116225000Y-87500000D01*
X113198000Y-85448000D02*
X115250000Y-87500000D01*
X113198000Y-77667800D02*
X113198000Y-85448000D01*
X115250000Y-88500000D02*
X116225000Y-88500000D01*
X112797000Y-86047000D02*
X115250000Y-88500000D01*
X112797000Y-77501700D02*
X112797000Y-86047000D01*
X110910000Y-74342900D02*
X110910000Y-74770000D01*
M02*
